<svg version="1.1" xmlns="http://www.w3.org/2000/svg" viewBox="0 0 1164.49697717039 1356.4526491704696" width="1164.49697717039" height="1356.4526491704696" class="excalidraw-svg">
  <!-- svg-source:excalidraw -->
  <!-- payload-type:application/vnd.excalidraw+json --><!-- payload-version:2 --><!-- payload-start -->eyJ2ZXJzaW9uIjoiMSIsImVuY29kaW5nIjoiYnN0cmluZyIsImNvbXByZXNzZWQiOnRydWUsImVuY29kZWQiOiJ4nO1dW1NcdTAwMWJJ0n2fX+Hwvq56K6uybvtcdTAwMDZjXHUwMDFiMFx1MDAwNmMuNvZcdTAwMTdcdTAwMWJcdTAwMGWBXHUwMDA0XGKEpJHEdWP++55sbPpcIolcdTAwMTY2zLTjUzs8Y7pLpeyqzHMys7KK//724sXL8c2g/fLfL162r1x1MDAwZpvdTmvYvHr5T7l/2Vx1MDAxZY46/Vx1MDAxZVx1MDAxZen051H/YniYtmxcdTAwMGVcdTAwMDb//te/+lx1MDAwN6NOq9PsJeetu1x1MDAwZrS77fN2bzxCk//Dzy9e/Df9b+4rup1eO22b3s2+wGhN5dub/V76bWTJWeV0XGb3LTq9Vvs6XHUwMDE1RGW9dUavIMC43cKDo2Z31M6eyK2Xa1x1MDAxYsdHXHUwMDE3/GmlY08uu5uWT99ejXT28aNOt7szvummco76XHUwMDE4iOzZaDzsn7U/dVrjk++jkbs/61PD/sXxSa89kvFQ93f7g+ZhZ3wjL6ayu83ecdpcdTAwMDcl1kXFLlx1MDAwNjZRXHUwMDA1lX2XvG9Du5BwYLJ4aqOPytw/l1x1MDAxZVx1MDAxYibExHljtI2BXHUwMDAya19cdTAwMTL19363P1x1MDAxNFH/QW35k1x0e9A8PDuGxL3WfZvxsNlcdTAwMWJccppDTGnW7urbIJBPVCRrgok+aDLZ5Jy0O8cnY5lUg5fRpLX3rJ3lmFx0005niYzjYJzNfVhEXHUwMDE4rLVSXHUwMDE1+k82N8PmeXtNPtK76HbzXHUwMDAz3Gt9XHUwMDFi4O+qlimb/nbnz+xcdTAwMWSl/euckmbfcDFoNe9Uh7yO1kdvvTPZ/EBxz8pf3+1cdTAwMWaeTdG20bg5XHUwMDFjL0NFO73j8kfavdaMJ93maPx7//y8M4ZcdTAwMThb/U5vXFxukfa7NFx1MDAxY/avTtrNibFAzzOfXHKku8wq5cr+9Vwi0830h/t//+efU1tzYq1cdTAwMGXeR1x1MDAxN8mTVi7/6YZKPMXorFx1MDAwZpFcdTAwMWNBXHUwMDBibVV/UGirtHZsvFx1MDAwYsqZYn86YcWGSXv2aORjVXdESXDKc3TMxkJEXejPJoqch1x1MDAxOZmgXCJE1ZX9caJcdTAwMWORslpcdTAwMTE0wpXe1yc+XHUwMDEwXHUwMDEzunKsYJjV70suUT5Y701kXGZP1Fxc6Fx1MDAxMPJbXHUwMDBiu1x1MDAxN8PCKOLF5+gwWjLWKlx1MDAwZdpqb4v94eswrJaUcU5cdTAwMWI7T3fsrNb4flx1MDAxZJ1cdTAwMGWxNCGUKM3e42Wdt9a5OVx1MDAwNlx1MDAxMFx1MDAxM1x1MDAxY1xmMMsra9hcdTAwMTffV9vEXHUwMDAzrThcdTAwMWFcdTAwMTXIaeeqXHUwMDA3UGFGnNaASW00YC5cdTAwMTY6NCrR0ZhcdTAwMDDdZGiUUZVcdTAwMWSySFx1MDAwMEw1XG5CKi69sNFJ5OBcdTAwMThcbqogY/VcdTAwMDTDXHUwMDA2iFx1MDAxNVx1MDAwNWM4Wlx1MDAxN4S4QrHHMi5mPf6W//834JqbRH005bv3XHUwMDFj6lx1MDAwMbPEOUDLKNTNT6H7Vy3bafWWWv56NFg5UkeD1vFZ3Sg0u5NSpvEm0Vx1MDAxNiZntIHt23Cvf3eUXHSUSDDnxqBFiJFdSbQnpMzEiyUwXHUwMDAxnyhcdTAwMDY9jTNcdTAwMDPMn1x1MDAxZFxilaDDsIpcdM7UhjSxzjlcdTAwMDY1ocygTFxiUOhcdTAwMDVlTrSePfFyTUz5XHUwMDEzwYHxvnz3XHUwMDFlXHUwMDBlwC9Abz/No/bzw1x1MDAwMW+ub3SXjz53L6/2rji0ba/TPak5XHUwMDFj2GDguMK/XHUwMDA2ZyvQ+j1b3qGBNvBrjTEgNlx1MDAwMmhSSbCnXHUwMDAzXHUwMDAzr8BT4iSBu+FcdTAwMDNzhkr3WKBcdTAwMTPMk4ZjXHUwMDAxjyqCy3LCfPOfrYak0epcZrPqXHUwMDAwXHUwMDA2gFlcdTAwMGaBNbtcdTAwMDVcdTAwMThMtp458XI1Jub8kWDQ7nY7g9F0PIi6fPc7XHUwMDFliFx1MDAxM0KI5jLAyPAgzI9cdTAwMDfr67tvdj+PT463XHUwMDFhqktwN/a6t91cdTAwMTl4cNI8PLlcdTAwMTi2a4BcYpptXHUwMDAy185cdTAwMDFcclxmXHUwMDA1pbJBuFx1MDAwYqltSFxiMUPEtGiFOfmpmHqizXc8XGJcdFx1MDAxY1x1MDAxMCs+K/tcdTAwMTiAP1N8g1x1MDAwND5cdTAwMWMhOohGoo2YXHUwMDEz5Fx1MDAwZVx1MDAwZlx1MDAxY8GTXHUwMDA2i2QvWFx1MDAwZjhA3CThXHUwMDEzZ1x1MDAwMlfDwVx1MDAwZlGeRVgyS8ctXHUwMDA0gcc9jfKW5lfxrtp7c9s9P7hcXLk9XHUwMDFmvbpsjb6uftirXHUwMDFi5VUkkchIxENkQH8sQW1J4b2EZMoginJcdTAwMDZWXHUwMDFjn88jRjCpYVjKXHUwMDA2hElcdTAwMTJcck8qvTVcdHCJXHUwMDExwUaJXHUwMDFllS0rPeFFrLJ1dIitd1Y9Run/v3Ag9M8jqDaSlWClqJCyYFCgxFx1MDAxMsZ6XHUwMDBiL2KOXHUwMDA0iEpcdTAwMTRF7Vx1MDAxNcg0XHUwMDEwXHUwMDFjW5PvLiB8h+poqDsodY78XGYnMTrlXGb4mVx1MDAwMqlYSCCRSeBcdTAwMTVaPFx1MDAwNVNE2E6o7C8mXHUwMDFjrDj2LuooXHUwMDE5rnx/XHUwMDFhzoBzXHUwMDAyTcHBm4PaVPVcdTAwMDebIdi2NVx1MDAwNNLysOOCfFrc11x1MDAwMKuXXHUwMDA0XHUwMDA0XHUwMDAyXl39vlx1MDAxMeGxh4AgOJh+IflhdMKsID1LXFziMFmVvdlE4V1kyFx0Y1x1MDAxNIvJXHUwMDE0XHUwMDAzXG7TwCbWXHUwMDE0lfM0z9RieFSE8SPkVU5cdTAwMTdelo1kXHUwMDFixcyiluxN5btaXHUwMDE5XHUwMDFjXHUwMDBi15/ZKYxSIVx1MDAwZWNoXG5cdOz5XGLtXHUwMDAz0Vf1JolcdTAwMWVcdTAwMDR2knKzwWtnoNP5XHUwMDBlJ6Drkb7cbJbzM1kuXHUwMDAyXGZlxqbR3O/z09z27aa9+tJ49XqTe6c7K7eDS7Parlx1MDAxYs1cdTAwMDFFiFx02lx1MDAwZYxcYsHnXHUwMDEyO3c0XHUwMDE3Qlx1MDAwMp2BY1x1MDAxN41X2uVcXIM7nlx1MDAxM/WBXHUwMDA3XHUwMDFltIKBkiqL+nw0l4uLZvLchHNnMa8uqFgv5+6O52K0uVx1MDAwMHbBc9+vMs9cdTAwMTUzy2Wiq17bKFx1MDAxM10x811mOvNIqqNCb2Wm4+ruSkznXHUwMDBi/ZWYbo68fJnptCl2WKK6avgvU11JwjLbVfdXIDtcYlJcdTAwMTSwzHZz+Fx1MDAxZWW6K1xuWOa7SoYq8lx1MDAxZKviXGaXXHSvUv8mXGIvXHUwMDE3WqTPJ0DsqVx1MDAxOC84Vb79nfG0k8lkk+FPxniv5me8y3i+tDc+3b1Zdep69Jm5XHUwMDA1XFz6xVx1MDAxOM+zXHUwMDEwXtDBXHUwMDFiid14XCKT4Vx1MDAxM+gpwFx1MDAwM5xn8ktcdTAwMGJ/XHUwMDAz32mXXHUwMDEwdJmchWFcdTAwMTPUMGPnb4RnvIbNIEitXHUwMDFm4TlcdTAwMTE9XHUwMDEzeEF4369cdTAwMDYlgT1cInKoofBcdTAwMWS58vI7K82imilcdTAwMTVQJac0oCaKvFxyXHUwMDFhOOtD0f9PXHUwMDE3y6HsirVSnpmq12aBsFx1MDAwMZAoSidJNlta7CWXSFx1MDAxMYLzzqNPb6o5JV1gd7KwXHUwMDAzfPcuhKKEMIVcdTAwMDDMNtGni+VcXE3KjdnWc/d4wnCeXGJkSeXyL+XkmXOWgqNpYcXr+UF29MHcnn3cene5c9P9Mmyoz8tcdTAwMWLjUDeQLS9cdTAwMTgpTsCRMUhCTMF1KK1cdTAwMTh50olcbneVXHUwMDEyLuRrmZ5cdTAwMWFWM8HuUVx1MDAxNP5KXHUwMDEyRbFAuya3XGb0PTdcdTAwMDbdk7WsUMtcdTAwMDVcIoRdi1x1MDAwMquK1qVcdH4qfyrnLZXdKUWabKSppVwib1x1MDAxZeFPvXZ/vPvYW13z62v761x1MDAxYrH/dWlpt+6mXHUwMDFlXHUwMDE0PPaowTdcdTAwMWWRTHklSGubwG8y3njE4VGxKYn2dKZcdTAwMGWHN9FcdTAwMDRGg4dccmPxU1aHM9nvV4NBhCBccq5XJvybsSOCXFxcdTAwMTj7ZOuZXHUwMDEzXfr0T5m7p5nErlx1MDAxZMHR8FPzhSvzW3traWt5J3590z5a3fdcdTAwMWJq96q/fXped2v3XHUwMDAx3qNVJLWHVumytSsv1lx1MDAwZexVUn6OSOTZrJ1cdTAwMDNcXIzgpZCDXHUwMDExyPopdWFcdTAwMTPWzlx1MDAxNk1DzVa97mxcdTAwMWRcdTAwMDOrXHUwMDE3wdFk65nTXFz69E/ZuizYzvTi05BH0zRqX53f2Fx1MDAwN9u3vZW1/dHKwVx1MDAxZfu1s+29U9NYr7mxwztPSGNcdTAwMDa0dbIxXCL76tTYybiEpbLSXHUwMDA3rzBAtiTZ3+rEa7C6YYBQXHJtXXaZLDL/XHUwMDE1rZ/HiVx1MDAwZlx1MDAwZpR7O6VcdTAwMDNcdTAwMDOHM2XKLH1tfkvf4P02n2wsXX9401g5Xu7vbfO7WVx1MDAwNV11sXSrY1x1MDAwMk6XlFx1MDAxMDtWvljuXHUwMDFkVaKYwOlcZuKHpT9fgeePkLqsXHUwMDEzOFk+WZj6r2Pqf1x1MDAxMa2rmT48wVWVXHUwMDA0aJy2XHUwMDA08nZ+a79Sw89cdTAwMWLXX1x1MDAwZdTW1/XezVx1MDAwNt/qU27V29qdTSQlj+Fn46I1JVx1MDAxZl4qOpOog1aW04zu863xP57XvdNM7LlmuTmShSXnXHUwMDEx+ixs/eHWz0TrNDM3RypGstH7aVx1MDAwZfz6/IZ+s7P7+j0tb358u9V/9fuX2Dp+y6reht4gb+GhXHUwMDFixOlWRcIglbZxXHUwMDA1JfsqWarqOco+yHpcdTAwMTG7deneTFezeH1h7HL9ncSe96nK5s4mOopm6qrbu/nN3V41Pu5uf/3jeFVcdTAwMWS86m6+6fU3u5s1N3dPiZGsXHUwMDFieaeM51iqUXfKJkbLLlqpiGPzfPE6XHUwMDE5m8hqXHUwMDAwooZoxVSmbdRS6bZ3qVUwsrEuTlx1MDAxNKlHqVDxuma1XGay3cU42bS+2Kg12Vpzop1cIpdcdTAwMTaIepXLkcvViCZcdIFlq46BnfpYXYxlXHUwMDEwl1pcblK/51x1MDAwM5VKp8iGRKI/J/UlTLpyX33wiSHCx6S41ZR21Vx1MDAwMzVcdTAwMTIobEirXHUwMDA0vKpcdTAwMTZutpqn/U1q+Fx1MDAxM8FcdTAwMWboeib8WVx1MDAxMyxrmlrZtTE//H3tNtut3Xejk4tXw3c7/c0vp6ervXrDXHUwMDFmxZg46FQkr5TFXHUwMDFjlmpcdTAwMGXQg0usklxyXHUwMDAzXG5Refwr8S9cdTAwMGKxZuHfRCVXkC3PMKLaOT9cdTAwMGL0e6BcZqlcdTAwMDR/rrBJp4x+1bWjZfgr1MpOoF91mVRcdTAwMTn/XG61rVx1MDAxM/g3R1x1MDAxZNdMRZerrOJPXHUwMDA0f5Q7vWRiU66xXGJzptdcXL2fXHUwMDFm/vzt7nb39futs+HR0d7W/uHO9e3ZRb3hT0thtUVULa43dMZnKZI7+Fx1MDAwYi6hyNpLXHUwMDExMilcdTAwMWbqVHNlLMlcdTAwMDZuW68zrYxitkboJOPbXHUwMDA12E1t/UxpXHUwMDFkP9PQgYmIY6yZmtbZekTJ1e7pxqfx3ifLN0fXa4dv4sfj5eV6W7pUsypYMFx1MDAwMF8qKGE2RU9cdTAwMDdTXHUwMDAxK+dcdTAwMThlg1xmaKheNVx1MDAxOKQ9eEJpWtj6r2Prf81yjcql9SfMXfZGWa2nLc5+eERcdTAwMTbXqD1yb1x1MDAwZt6djjvXXHUwMDAzc307MP1R3c1d1mvgtnlcdTAwMTVcdTAwMWPcQJdhYmrtcvBcdTAwMDBFSeo4rVk/48FcdTAwMDNGJ8GzXHUwMDFjklx1MDAwMFdcdTAwMTRcdTAwMTHWlOM2pFx1MDAwMCzK8ZTRILrPXHUwMDFkJHi/gFx1MDAwM2RCXHUwMDE472q2gLOwfrlmZU1sXCJ7VVmSh8bYYk5HXHUwMDBlgvOy2Vx1MDAxMCEhO129v46gsY7F29Nes1x0xYO9KCZWqEtcdTAwMTKYUuLJ1WclhoCgXHUwMDA2wsHp1V62n1x1MDAxNFx1MDAxY5OAL4tcdTAwMTHxXHTLXHUwMDA2xuruYEtcYlrgSXvJpcDqXG7SkU+Ci2DfXGKFgbddeVx1MDAxNOZso0mfls3lqaCUcn5RXHRKXHKiO3hOU8tcXLbnR9JcdTAwMGaD1mB4OLho6l3XWVrR7/3ueKXeSMpcYphcdTAwMTU0xEJcdTAwMWbSXHJXxVx1MDAxMElmSo5cdTAwMDeOXHUwMDExymLzXHUwMDFie2qJpFq5XHUwMDAwX8rFhSP160Bp40EsbTxcdTAwMWFMXHUwMDFiXHUwMDBmo2nj8XDaeFx1MDAxOE9cdTAwMWKPXHUwMDA21MaDiNp4PKQ2XHUwMDFlxtTGz4LqQ8fB5daiy5tcdTAwMDJcdTAwMDLLWSZmXHUwMDFhrO7MXHUwMDBmq6dcdTAwMWLrvL953d89bi57+8fS2z9OluyPwKpKyvj1rFx1MDAxMWlMXHUwMDAyNNrjr5OtpaXkk7EuQaDqXGbQSjurcuu3dTtcdTAwMGZO1Fx1MDAxYcpFmZddXHUwMDBiVNUkpViMsX1cdTAwMDSq/pjvoP3sMIxccqAhmNyqRKblu/Nr+fnFcOtm46ZcdTAwMWQ/fe2dbtiT/dZFs+b51Vx1MDAwNtApsbJJ28hpIVx1MDAxM6vr0buEgeneKa9iiD+l4U+eXpVcIv6Q81x0a6HTspZcdTAwMTRBWnpx3FtF6+dJr8Ywu4xGlqvBr1N3tO7Nb+h6256521x1MDAwZp3WaG29c/n6NHxcdTAwMTmOj2tu6C6kp1x1MDAwNXirxMHJl3nd7V3nKO6FlFx1MDAxNFpJxzzfr1x1MDAwYvmR9Kq2Rmtbu9ONXHUwMDE3pi7X35tdnX1SXHUwMDA1K5bp0dNY/eP8xj5uvT3Z3l3f2Ns4P7a8N1q9WeJXNTd22b5cdTAwMWXZKYtcdTAwMDBJPMfSeXdcdTAwMDDBXHUwMDA0cYuj1KMk9XysPm/NnPFcdTAwMDTnQn7ZTvCT295cdTAwMTBcdTAwMGU6SFq3vTBcdTAwMGLzl+uHauaiSTwsXHUwMDEzw2es9zpUhsdcdTAwMGaWzEnNiJM9m8BcdTAwMWKTxuNV3T1UMidcdTAwMTUjKrBFPFx1MDAxMPCVpvr4z4dL5ib0+6mwj/TMuFx1MDAxZI6xXHUwMDFj+ze1YO7T/Ni3+2G4tblz8C703jaHw8Hym009pJpjnyEluVx1MDAxYzkqSpF2vrS/V7CP5eg0loJqfsbdXHUwMDAxT1EvR8HBTDwtPJ9fXGL6XHUwMDE2XHUwMDA1c09ZMPdg4nLm6ceyXHUwMDEwXCI51GlcdTAwMDC4Pz9cdTAwMDA2PtyeX32y76lcdTAwMWZPXHUwMDBl95eWbulg9bT2iUtcdTAwMTBDoknCOFx1MDAxN1x1MDAxOJ5cdTAwMTNN7JlcYon45FrCYVx1MDAxZumBWpro6VA/iIH/0DpcdTAwMWO03ST+PUXeXHUwMDEyMM2gYVx1MDAxN2tWMJwmLuFAm8dcdTAwMTRcZt+p+W/f7Eh+derOXHUwMDE4Xd6LhlfrtHY6t+1CNy8vO+2r5SnjfpReL3/7Jr8oYzt9zz9/+/N/XHUwMDE3lVx1MDAwNWcifQ==<!-- payload-end -->
  <defs>
    <style class="style-fonts">
      @font-face {
        font-family: "Virgil";
        src: url("https://excalidraw.com/Virgil.woff2");
      }
      @font-face {
        font-family: "Cascadia";
        src: url("https://excalidraw.com/Cascadia.woff2");
      }
      @font-face {
        font-family: "Assistant";
        src: url("https://excalidraw.com/Assistant-Regular.woff2");
      }
    </style>
    
  </defs>
  <rect x="0" y="0" width="1164.49697717039" height="1356.4526491704696" fill="#ffffff"/><g stroke-linecap="round"><g transform="translate(427.63559652634484 652.2548794855775) rotate(89.89977006332212 8.40558584934206 -16.781061387132752)"><path d="M0 0 C0.76 -0.12, 3.14 -0.32, 4.55 -0.72 C5.96 -1.12, 7.23 -1.69, 8.45 -2.4 C9.67 -3.12, 10.93 -4.12, 11.86 -5.02 C12.8 -5.91, 13.36 -6.69, 14.06 -7.78 C14.76 -8.87, 15.6 -10.17, 16.08 -11.56 C16.56 -12.94, 16.89 -14.5, 16.95 -16.08 C17.02 -17.66, 16.88 -19.42, 16.47 -21.02 C16.05 -22.63, 15.52 -24.18, 14.45 -25.73 C13.38 -27.27, 11.69 -29.09, 10.07 -30.29 C8.45 -31.5, 6.43 -32.4, 4.73 -32.95 C3.02 -33.49, 0.67 -33.46, -0.14 -33.56 M0 0 C0.76 -0.12, 3.14 -0.32, 4.55 -0.72 C5.96 -1.12, 7.23 -1.69, 8.45 -2.4 C9.67 -3.12, 10.93 -4.12, 11.86 -5.02 C12.8 -5.91, 13.36 -6.69, 14.06 -7.78 C14.76 -8.87, 15.6 -10.17, 16.08 -11.56 C16.56 -12.94, 16.89 -14.5, 16.95 -16.08 C17.02 -17.66, 16.88 -19.42, 16.47 -21.02 C16.05 -22.63, 15.52 -24.18, 14.45 -25.73 C13.38 -27.27, 11.69 -29.09, 10.07 -30.29 C8.45 -31.5, 6.43 -32.4, 4.73 -32.95 C3.02 -33.49, 0.67 -33.46, -0.14 -33.56" stroke="#1e1e1e" stroke-width="2" fill="none"/></g></g><mask/><g stroke-linecap="round"><g transform="translate(322.86896769215804 606.4318676284256) rotate(0 0.8725420803599206 40.77341059669749)"><path d="M0 0 C0.29 13.59, 1.45 67.96, 1.75 81.55 M0 0 C0.29 13.59, 1.45 67.96, 1.75 81.55" stroke="#1e1e1e" stroke-width="2" fill="none"/></g></g><mask/><g stroke-linecap="round"><g transform="translate(113.02276895221837 804.8948488556891) rotate(0 350.1445847591822 -1.0511082099973805)"><path d="M0 0 C116.71 -0.35, 583.57 -1.75, 700.29 -2.1 M0 0 C116.71 -0.35, 583.57 -1.75, 700.29 -2.1" stroke="#1e1e1e" stroke-width="2" fill="none"/></g></g><mask/><g stroke-linecap="round" transform="translate(450.8161498905232 683.8114132553254) rotate(0 4.189256237399178 4.325577946582058)"><path d="M0.67 1.91 C0.67 1.91, 0.67 1.91, 0.67 1.91 M0.67 1.91 C0.67 1.91, 0.67 1.91, 0.67 1.91 M5.39 8.66 C6.2 7.73, 7.01 6.8, 8.67 4.89 M5.39 8.66 C6.5 7.39, 7.6 6.12, 8.67 4.89" stroke="#1e1e1e" stroke-width="1" fill="none"/><path d="M8.38 4.33 C8.38 4.58, 8.36 4.83, 8.31 5.08 C8.27 5.32, 8.21 5.57, 8.13 5.81 C8.04 6.04, 7.94 6.27, 7.82 6.49 C7.7 6.71, 7.55 6.91, 7.4 7.11 C7.24 7.3, 7.07 7.48, 6.88 7.64 C6.7 7.8, 6.49 7.95, 6.28 8.07 C6.07 8.2, 5.85 8.3, 5.62 8.39 C5.39 8.48, 5.16 8.54, 4.92 8.59 C4.68 8.63, 4.43 8.65, 4.19 8.65 C3.95 8.65, 3.7 8.63, 3.46 8.59 C3.22 8.54, 2.98 8.48, 2.76 8.39 C2.53 8.3, 2.3 8.2, 2.09 8.07 C1.88 7.95, 1.68 7.8, 1.5 7.64 C1.31 7.48, 1.14 7.3, 0.98 7.11 C0.82 6.91, 0.68 6.71, 0.56 6.49 C0.44 6.27, 0.34 6.04, 0.25 5.81 C0.17 5.57, 0.11 5.32, 0.06 5.08 C0.02 4.83, 0 4.58, 0 4.33 C0 4.08, 0.02 3.82, 0.06 3.57 C0.11 3.33, 0.17 3.08, 0.25 2.85 C0.34 2.61, 0.44 2.38, 0.56 2.16 C0.68 1.95, 0.82 1.74, 0.98 1.55 C1.14 1.35, 1.31 1.17, 1.5 1.01 C1.68 0.85, 1.88 0.7, 2.09 0.58 C2.3 0.45, 2.53 0.35, 2.76 0.26 C2.98 0.18, 3.22 0.11, 3.46 0.07 C3.7 0.02, 3.95 0, 4.19 0 C4.43 0, 4.68 0.02, 4.92 0.07 C5.16 0.11, 5.39 0.18, 5.62 0.26 C5.85 0.35, 6.07 0.45, 6.28 0.58 C6.49 0.7, 6.7 0.85, 6.88 1.01 C7.07 1.17, 7.24 1.35, 7.4 1.55 C7.55 1.74, 7.7 1.95, 7.82 2.16 C7.94 2.38, 8.04 2.61, 8.13 2.85 C8.21 3.08, 8.27 3.33, 8.31 3.57 C8.36 3.82, 8.37 4.2, 8.38 4.33 C8.39 4.45, 8.39 4.2, 8.38 4.33" stroke="#1e1e1e" stroke-width="2" fill="none"/></g><g stroke-linecap="round"><g transform="translate(561.3986198681475 666.2078761043052) rotate(89.89977006332212 10.465050187252288 26.57870329526702)"><path d="M0 0 C0.8 0.68, 3.11 2.61, 4.78 4.1 C6.45 5.59, 8.32 7.34, 10.02 8.95 C11.72 10.55, 13.42 11.85, 15 13.73 C16.57 15.62, 18.47 18.05, 19.49 20.27 C20.5 22.48, 21.14 25.01, 21.1 27.04 C21.07 29.07, 20.27 30.51, 19.26 32.44 C18.24 34.37, 16.5 36.75, 15 38.63 C13.5 40.51, 11.93 42, 10.27 43.72 C8.61 45.43, 6.78 47.34, 5.04 48.91 C3.3 50.48, 0.69 52.45, -0.17 53.16 M0 0 C0.8 0.68, 3.11 2.61, 4.78 4.1 C6.45 5.59, 8.32 7.34, 10.02 8.95 C11.72 10.55, 13.42 11.85, 15 13.73 C16.57 15.62, 18.47 18.05, 19.49 20.27 C20.5 22.48, 21.14 25.01, 21.1 27.04 C21.07 29.07, 20.27 30.51, 19.26 32.44 C18.24 34.37, 16.5 36.75, 15 38.63 C13.5 40.51, 11.93 42, 10.27 43.72 C8.61 45.43, 6.78 47.34, 5.04 48.91 C3.3 50.48, 0.69 52.45, -0.17 53.16" stroke="#1e1e1e" stroke-width="2" fill="none"/></g></g><mask/><g stroke-linecap="round"><g transform="translate(508.09938998529776 698.14452341891) rotate(270.1002299366779 10.465050187252288 -26.578703295267047)"><path d="M0 0 C0.8 -0.68, 3.11 -2.61, 4.78 -4.1 C6.45 -5.59, 8.32 -7.34, 10.02 -8.95 C11.72 -10.55, 13.42 -11.85, 15 -13.73 C16.57 -15.62, 18.47 -18.05, 19.49 -20.27 C20.5 -22.48, 21.14 -25.01, 21.1 -27.04 C21.07 -29.07, 20.27 -30.51, 19.26 -32.44 C18.24 -34.37, 16.5 -36.75, 15 -38.63 C13.5 -40.51, 11.93 -42, 10.27 -43.72 C8.61 -45.43, 6.78 -47.34, 5.04 -48.91 C3.3 -50.48, 0.69 -52.45, -0.17 -53.16 M0 0 C0.8 -0.68, 3.11 -2.61, 4.78 -4.1 C6.45 -5.59, 8.32 -7.34, 10.02 -8.95 C11.72 -10.55, 13.42 -11.85, 15 -13.73 C16.57 -15.62, 18.47 -18.05, 19.49 -20.27 C20.5 -22.48, 21.14 -25.01, 21.1 -27.04 C21.07 -29.07, 20.27 -30.51, 19.26 -32.44 C18.24 -34.37, 16.5 -36.75, 15 -38.63 C13.5 -40.51, 11.93 -42, 10.27 -43.72 C8.61 -45.43, 6.78 -47.34, 5.04 -48.91 C3.3 -50.48, 0.69 -52.45, -0.17 -53.16" stroke="#1e1e1e" stroke-width="2" fill="none"/></g></g><mask/><g stroke-linecap="round"><g transform="translate(622.0989221829605 684.7885607850212) rotate(270.1002299366779 -10.639602943124935 -13.059508286105512)"><path d="M0 0 C-0.31 -0.9, -0.83 -3.47, -1.85 -5.4 C-2.86 -7.33, -4.6 -9.71, -6.1 -11.59 C-7.6 -13.47, -9.18 -14.97, -10.84 -16.68 C-12.5 -18.39, -14.33 -20.3, -16.07 -21.87 C-17.81 -23.44, -20.41 -25.41, -21.28 -26.12 M0 0 C-0.31 -0.9, -0.83 -3.47, -1.85 -5.4 C-2.86 -7.33, -4.6 -9.71, -6.1 -11.59 C-7.6 -13.47, -9.18 -14.97, -10.84 -16.68 C-12.5 -18.39, -14.33 -20.3, -16.07 -21.87 C-17.81 -23.44, -20.41 -25.41, -21.28 -26.12" stroke="#1e1e1e" stroke-width="2" fill="none"/></g></g><mask/><g stroke-linecap="round"><g transform="translate(191.78976762922463 329.83857650056643) rotate(0 0 220.47783078663)"><path d="M0 0 C0 73.49, 0 367.46, 0 440.96 M0 0 C0 73.49, 0 367.46, 0 440.96" stroke="#1e1e1e" stroke-width="2" fill="none"/></g></g><mask/><g stroke-linecap="round"><g transform="translate(115.49053334747316 816.6888316864297) rotate(0 293.1072090100887 0)"><path d="M0 0 C97.7 0, 488.51 0, 586.21 0 M0 0 C97.7 0, 488.51 0, 586.21 0" stroke="#1e1e1e" stroke-width="2" fill="none"/></g></g><mask/><g stroke-linecap="round"><g transform="translate(117.53473599182121 834.6886494023584) rotate(0 242.1939763221739 0)"><path d="M0 0 C80.73 0, 403.66 0, 484.39 0 M0 0 C80.73 0, 403.66 0, 484.39 0" stroke="#1e1e1e" stroke-width="2" fill="none"/></g></g><mask/><g stroke-linecap="round"><g transform="translate(406.9949083604817 905.4969875972097) rotate(0 0 220.47783078663)"><path d="M0 0 C0 73.49, 0 367.46, 0 440.96 M0 0 C0 73.49, 0 367.46, 0 440.96" stroke="#1e1e1e" stroke-width="2" fill="none"/></g></g><mask/><g stroke-linecap="round"><g transform="translate(167.10533087591648 1131.9697659175222) rotate(0 242.1939763221739 0)"><path d="M0 0 C80.73 0, 403.66 0, 484.39 0 M0 0 C80.73 0, 403.66 0, 484.39 0" stroke="#1e1e1e" stroke-width="2" fill="none"/></g></g><mask/><g stroke-linecap="round"><g transform="translate(761.2926896660192 10) rotate(0 0 220.47783078662997)"><path d="M0 0 C0 73.49, 0 367.46, 0 440.96 M0 0 C0 73.49, 0 367.46, 0 440.96" stroke="#1e1e1e" stroke-width="2" fill="none"/></g></g><mask/><g stroke-linecap="round"><g transform="translate(520.6862484131425 235.853510317595) rotate(0 242.1939763221739 0)"><path d="M0 0 C80.73 0, 403.66 0, 484.39 0 M0 0 C80.73 0, 403.66 0, 484.39 0" stroke="#1e1e1e" stroke-width="2" fill="none"/></g></g><mask/><g stroke-linecap="round"><g transform="translate(624.7691391619489 436.6025836583767) rotate(0 67.78740209793362 -100.35991551618395)"><path d="M0 0 C4.04 -15.65, 15.42 -67.4, 24.26 -93.88 C33.1 -120.37, 42.51 -142.32, 53.02 -158.91 C63.52 -175.5, 73.55 -186.45, 87.31 -193.42 C101.07 -200.39, 127.53 -199.5, 135.57 -200.72 M0 0 C4.04 -15.65, 15.42 -67.4, 24.26 -93.88 C33.1 -120.37, 42.51 -142.32, 53.02 -158.91 C63.52 -175.5, 73.55 -186.45, 87.31 -193.42 C101.07 -200.39, 127.53 -199.5, 135.57 -200.72" stroke="#1e1e1e" stroke-width="2" fill="none"/></g></g><mask/><g stroke-linecap="round"><g transform="translate(895.8177426228897 35.422973448926655) rotate(0 -67.78740209793364 100.359915516184)"><path d="M0 0 C-4.04 15.65, -15.42 67.4, -24.26 93.88 C-33.1 120.37, -42.51 142.32, -53.02 158.91 C-63.52 175.5, -73.55 186.45, -87.31 193.42 C-101.07 200.39, -127.53 199.5, -135.57 200.72 M0 0 C-4.04 15.65, -15.42 67.4, -24.26 93.88 C-33.1 120.37, -42.51 142.32, -53.02 158.91 C-63.52 175.5, -73.55 186.45, -87.31 193.42 C-101.07 200.39, -127.53 199.5, -135.57 200.72" stroke="#1e1e1e" stroke-width="2" fill="none"/></g></g><mask/><g stroke-linecap="round"><g transform="translate(911.1713304484756 855.7339267413123) rotate(0 0 220.47783078663)"><path d="M0 0 C0 73.49, 0 367.46, 0 440.96 M0 0 C0 73.49, 0 367.46, 0 440.96" stroke="#1e1e1e" stroke-width="2" fill="none"/></g></g><mask/><g stroke-linecap="round"><g transform="translate(670.1090245260423 1082.206705061625) rotate(0 242.1939763221739 0)"><path d="M0 0 C80.73 0, 403.66 0, 484.39 0 M0 0 C80.73 0, 403.66 0, 484.39 0" stroke="#1e1e1e" stroke-width="2" fill="none"/></g></g><mask/><g stroke-linecap="round"><g transform="translate(670.9466338362562 1087.6501272736446) rotate(0 116.43745234052828 103.9918296898586)"><path d="M0 0 C14.33 0.92, 61.68 2.24, 85.95 5.5 C110.23 8.76, 128.58 12.36, 145.64 19.55 C162.7 26.74, 175.97 32.26, 188.31 48.65 C200.66 65.04, 212.28 91.31, 219.71 117.87 C227.14 144.42, 230.68 192.96, 232.87 207.98 M0 0 C14.33 0.92, 61.68 2.24, 85.95 5.5 C110.23 8.76, 128.58 12.36, 145.64 19.55 C162.7 26.74, 175.97 32.26, 188.31 48.65 C200.66 65.04, 212.28 91.31, 219.71 117.87 C227.14 144.42, 230.68 192.96, 232.87 207.98" stroke="#1e1e1e" stroke-width="2" fill="none"/></g></g><mask/><g stroke-linecap="round"><g transform="translate(1154.1971108670352 1074.8261153868712) rotate(0 -116.43745234052828 -103.9918296898586)"><path d="M0 0 C-14.33 -0.92, -61.68 -2.24, -85.95 -5.5 C-110.23 -8.76, -128.58 -12.36, -145.64 -19.55 C-162.7 -26.74, -175.97 -32.26, -188.31 -48.65 C-200.66 -65.04, -212.28 -91.31, -219.71 -117.87 C-227.14 -144.42, -230.68 -192.96, -232.87 -207.98 M0 0 C-14.33 -0.92, -61.68 -2.24, -85.95 -5.5 C-110.23 -8.76, -128.58 -12.36, -145.64 -19.55 C-162.7 -26.74, -175.97 -32.26, -188.31 -48.65 C-200.66 -65.04, -212.28 -91.31, -219.71 -117.87 C-227.14 -144.42, -230.68 -192.96, -232.87 -207.98" stroke="#1e1e1e" stroke-width="2" fill="none"/></g></g><mask/><g stroke-linecap="round" transform="translate(426.2940783560196 685.1115684847698) rotate(0 4.189256237399178 4.325577946582058)"><path d="M8.38 4.33 C8.38 4.58, 8.36 4.83, 8.31 5.08 C8.27 5.32, 8.21 5.57, 8.13 5.81 C8.04 6.04, 7.94 6.27, 7.82 6.49 C7.7 6.71, 7.55 6.91, 7.4 7.11 C7.24 7.3, 7.07 7.48, 6.88 7.64 C6.7 7.8, 6.49 7.95, 6.28 8.07 C6.07 8.2, 5.85 8.3, 5.62 8.39 C5.39 8.48, 5.16 8.54, 4.92 8.59 C4.68 8.63, 4.43 8.65, 4.19 8.65 C3.95 8.65, 3.7 8.63, 3.46 8.59 C3.22 8.54, 2.98 8.48, 2.76 8.39 C2.53 8.3, 2.3 8.2, 2.09 8.07 C1.88 7.95, 1.68 7.8, 1.5 7.64 C1.31 7.48, 1.14 7.3, 0.98 7.11 C0.82 6.91, 0.68 6.71, 0.56 6.49 C0.44 6.27, 0.34 6.04, 0.25 5.81 C0.17 5.57, 0.11 5.32, 0.06 5.08 C0.02 4.83, 0 4.58, 0 4.33 C0 4.08, 0.02 3.82, 0.06 3.57 C0.11 3.33, 0.17 3.08, 0.25 2.85 C0.34 2.61, 0.44 2.38, 0.56 2.16 C0.68 1.95, 0.82 1.74, 0.98 1.55 C1.14 1.35, 1.31 1.17, 1.5 1.01 C1.68 0.85, 1.88 0.7, 2.09 0.58 C2.3 0.45, 2.53 0.35, 2.76 0.26 C2.98 0.18, 3.22 0.11, 3.46 0.07 C3.7 0.02, 3.95 0, 4.19 0 C4.43 0, 4.68 0.02, 4.92 0.07 C5.16 0.11, 5.39 0.18, 5.62 0.26 C5.85 0.35, 6.07 0.45, 6.28 0.58 C6.49 0.7, 6.7 0.85, 6.88 1.01 C7.07 1.17, 7.24 1.35, 7.4 1.55 C7.55 1.74, 7.7 1.95, 7.82 2.16 C7.94 2.38, 8.04 2.61, 8.13 2.85 C8.21 3.08, 8.27 3.33, 8.31 3.57 C8.36 3.82, 8.37 4.2, 8.38 4.33 C8.39 4.45, 8.39 4.2, 8.38 4.33" stroke="none" stroke-width="0" fill="#1e1e1e"/><path d="M8.38 4.33 C8.38 4.58, 8.36 4.83, 8.31 5.08 C8.27 5.32, 8.21 5.57, 8.13 5.81 C8.04 6.04, 7.94 6.27, 7.82 6.49 C7.7 6.71, 7.55 6.91, 7.4 7.11 C7.24 7.3, 7.07 7.48, 6.88 7.64 C6.7 7.8, 6.49 7.95, 6.28 8.07 C6.07 8.2, 5.85 8.3, 5.62 8.39 C5.39 8.48, 5.16 8.54, 4.92 8.59 C4.68 8.63, 4.43 8.65, 4.19 8.65 C3.95 8.65, 3.7 8.63, 3.46 8.59 C3.22 8.54, 2.98 8.48, 2.76 8.39 C2.53 8.3, 2.3 8.2, 2.09 8.07 C1.88 7.95, 1.68 7.8, 1.5 7.64 C1.31 7.48, 1.14 7.3, 0.98 7.11 C0.82 6.91, 0.68 6.71, 0.56 6.49 C0.44 6.27, 0.34 6.04, 0.25 5.81 C0.17 5.57, 0.11 5.32, 0.06 5.08 C0.02 4.83, 0 4.58, 0 4.33 C0 4.08, 0.02 3.82, 0.06 3.57 C0.11 3.33, 0.17 3.08, 0.25 2.85 C0.34 2.61, 0.44 2.38, 0.56 2.16 C0.68 1.95, 0.82 1.74, 0.98 1.55 C1.14 1.35, 1.31 1.17, 1.5 1.01 C1.68 0.85, 1.88 0.7, 2.09 0.58 C2.3 0.45, 2.53 0.35, 2.76 0.26 C2.98 0.18, 3.22 0.11, 3.46 0.07 C3.7 0.02, 3.95 0, 4.19 0 C4.43 0, 4.68 0.02, 4.92 0.07 C5.16 0.11, 5.39 0.18, 5.62 0.26 C5.85 0.35, 6.07 0.45, 6.28 0.58 C6.49 0.7, 6.7 0.85, 6.88 1.01 C7.07 1.17, 7.24 1.35, 7.4 1.55 C7.55 1.74, 7.7 1.95, 7.82 2.16 C7.94 2.38, 8.04 2.61, 8.13 2.85 C8.21 3.08, 8.27 3.33, 8.31 3.57 C8.36 3.82, 8.37 4.2, 8.38 4.33 C8.39 4.45, 8.39 4.2, 8.38 4.33" stroke="#1e1e1e" stroke-width="0.5" fill="none"/></g><g stroke-linecap="round"><g transform="translate(250.6065474009746 65.47182939643073) rotate(0 0 220.47783078663002)"><path d="M0 0 C0 73.49, 0 367.46, 0 440.96 M0 0 C0 73.49, 0 367.46, 0 440.96" stroke="#1e1e1e" stroke-width="2" fill="none"/></g></g><mask/><g stroke-linecap="round"><g transform="translate(10 291.94460771674346) rotate(0 242.1939763221739 0)"><path d="M0 0 C80.73 0, 403.66 0, 484.39 0 M0 0 C80.73 0, 403.66 0, 484.39 0" stroke="#1e1e1e" stroke-width="2" fill="none"/></g></g><mask/><g stroke-linecap="round"><g transform="translate(115.17369717719907 91.7565879876098) rotate(0 67.78740209793364 100.18594728989382)"><path d="M0 0 C4.04 15.62, 15.42 67.28, 24.26 93.72 C33.1 120.16, 42.51 142.07, 53.02 158.63 C63.52 175.19, 73.55 186.13, 87.31 193.08 C101.07 200.04, 127.53 199.16, 135.57 200.37 M0 0 C4.04 15.62, 15.42 67.28, 24.26 93.72 C33.1 120.16, 42.51 142.07, 53.02 158.63 C63.52 175.19, 73.55 186.13, 87.31 193.08 C101.07 200.04, 127.53 199.16, 135.57 200.37" stroke="#1e1e1e" stroke-width="2" fill="none"/></g></g><mask/><g stroke-linecap="round"><g transform="translate(385.47073342105665 91.514070848075) rotate(0 -67.78740209793364 100.359915516184)"><path d="M0 0 C-4.04 15.65, -15.42 67.4, -24.26 93.88 C-33.1 120.37, -42.51 142.32, -53.02 158.91 C-63.52 175.5, -73.55 186.45, -87.31 193.42 C-101.07 200.39, -127.53 199.5, -135.57 200.72 M0 0 C-4.04 15.65, -15.42 67.4, -24.26 93.88 C-33.1 120.37, -42.51 142.32, -53.02 158.91 C-63.52 175.5, -73.55 186.45, -87.31 193.42 C-101.07 200.39, -127.53 199.5, -135.57 200.72" stroke="#1e1e1e" stroke-width="2" fill="none"/></g></g><mask/><g stroke-linecap="round" transform="translate(573.9090742376768 433.4847775166289) rotate(0 4.189256237399178 4.32557794658203)"><path d="M8.38 4.33 C8.38 4.58, 8.36 4.83, 8.31 5.08 C8.27 5.32, 8.21 5.57, 8.13 5.81 C8.04 6.04, 7.94 6.27, 7.82 6.49 C7.7 6.71, 7.55 6.91, 7.4 7.11 C7.24 7.3, 7.07 7.48, 6.88 7.64 C6.7 7.8, 6.49 7.95, 6.28 8.07 C6.07 8.2, 5.85 8.3, 5.62 8.39 C5.39 8.48, 5.16 8.54, 4.92 8.59 C4.68 8.63, 4.43 8.65, 4.19 8.65 C3.95 8.65, 3.7 8.63, 3.46 8.59 C3.22 8.54, 2.98 8.48, 2.76 8.39 C2.53 8.3, 2.3 8.2, 2.09 8.07 C1.88 7.95, 1.68 7.8, 1.5 7.64 C1.31 7.48, 1.14 7.3, 0.98 7.11 C0.82 6.91, 0.68 6.71, 0.56 6.49 C0.44 6.27, 0.34 6.04, 0.25 5.81 C0.17 5.57, 0.11 5.32, 0.06 5.08 C0.02 4.83, 0 4.58, 0 4.33 C0 4.08, 0.02 3.82, 0.06 3.57 C0.11 3.33, 0.17 3.08, 0.25 2.85 C0.34 2.61, 0.44 2.38, 0.56 2.16 C0.68 1.95, 0.82 1.74, 0.98 1.55 C1.14 1.35, 1.31 1.17, 1.5 1.01 C1.68 0.85, 1.88 0.7, 2.09 0.58 C2.3 0.45, 2.53 0.35, 2.76 0.26 C2.98 0.18, 3.22 0.11, 3.46 0.07 C3.7 0.02, 3.95 0, 4.19 0 C4.43 0, 4.68 0.02, 4.92 0.07 C5.16 0.11, 5.39 0.18, 5.62 0.26 C5.85 0.35, 6.07 0.45, 6.28 0.58 C6.49 0.7, 6.7 0.85, 6.88 1.01 C7.07 1.17, 7.24 1.35, 7.4 1.55 C7.55 1.74, 7.7 1.95, 7.82 2.16 C7.94 2.38, 8.04 2.61, 8.13 2.85 C8.21 3.08, 8.27 3.33, 8.31 3.57 C8.36 3.82, 8.37 4.2, 8.38 4.33 C8.39 4.45, 8.39 4.2, 8.38 4.33" stroke="none" stroke-width="0" fill="#228be6"/><path d="M8.38 4.33 C8.38 4.58, 8.36 4.83, 8.31 5.08 C8.27 5.32, 8.21 5.57, 8.13 5.81 C8.04 6.04, 7.94 6.27, 7.82 6.49 C7.7 6.71, 7.55 6.91, 7.4 7.11 C7.24 7.3, 7.07 7.48, 6.88 7.64 C6.7 7.8, 6.49 7.95, 6.28 8.07 C6.07 8.2, 5.85 8.3, 5.62 8.39 C5.39 8.48, 5.16 8.54, 4.92 8.59 C4.68 8.63, 4.43 8.65, 4.19 8.65 C3.95 8.65, 3.7 8.63, 3.46 8.59 C3.22 8.54, 2.98 8.48, 2.76 8.39 C2.53 8.3, 2.3 8.2, 2.09 8.07 C1.88 7.95, 1.68 7.8, 1.5 7.64 C1.31 7.48, 1.14 7.3, 0.98 7.11 C0.82 6.91, 0.68 6.71, 0.56 6.49 C0.44 6.27, 0.34 6.04, 0.25 5.81 C0.17 5.57, 0.11 5.32, 0.06 5.08 C0.02 4.83, 0 4.58, 0 4.33 C0 4.08, 0.02 3.82, 0.06 3.57 C0.11 3.33, 0.17 3.08, 0.25 2.85 C0.34 2.61, 0.44 2.38, 0.56 2.16 C0.68 1.95, 0.82 1.74, 0.98 1.55 C1.14 1.35, 1.31 1.17, 1.5 1.01 C1.68 0.85, 1.88 0.7, 2.09 0.58 C2.3 0.45, 2.53 0.35, 2.76 0.26 C2.98 0.18, 3.22 0.11, 3.46 0.07 C3.7 0.02, 3.95 0, 4.19 0 C4.43 0, 4.68 0.02, 4.92 0.07 C5.16 0.11, 5.39 0.18, 5.62 0.26 C5.85 0.35, 6.07 0.45, 6.28 0.58 C6.49 0.7, 6.7 0.85, 6.88 1.01 C7.07 1.17, 7.24 1.35, 7.4 1.55 C7.55 1.74, 7.7 1.95, 7.82 2.16 C7.94 2.38, 8.04 2.61, 8.13 2.85 C8.21 3.08, 8.27 3.33, 8.31 3.57 C8.36 3.82, 8.37 4.2, 8.38 4.33 C8.39 4.45, 8.39 4.2, 8.38 4.33" stroke="#1971c2" stroke-width="0.5" fill="none"/></g></svg>