<svg version="1.1" xmlns="http://www.w3.org/2000/svg" viewBox="0 0 248.66844686881888 195.0839302923634" width="248.66844686881888" height="195.0839302923634" class="excalidraw-svg">
  <!-- svg-source:excalidraw -->
  <!-- payload-type:application/vnd.excalidraw+json --><!-- payload-version:2 --><!-- payload-start -->eyJ2ZXJzaW9uIjoiMSIsImVuY29kaW5nIjoiYnN0cmluZyIsImNvbXByZXNzZWQiOnRydWUsImVuY29kZWQiOiJ4nO1aWVPbSFx1MDAxMH7nV1DOS1JcdTAwMWIr3XNP3lxiIVx1MDAwN7k5apPdSqWEPcZKZMkryVx1MDAwMZLKf9+WXHUwMDAwj7AlMFx1MDAxMMC1tUol4JnRnN/RPc7PldXVTnE0dp3Hq1x1MDAxZHfYXHUwMDBi46ifhVx1MDAwN52HZfl3l+VRmlBcdTAwMTWrPufpJOtVLcPx+PGjR+leXHUwMDFl9aMwXHRG/eNcdTAwMTdcXOxGLilyavI3fV5d/Vn9W1x1MDAxYlwijlx1MDAxMle1rUprXHUwMDAzXHUwMDAw2Nnit2lSjYZcdTAwMDK0sFx1MDAwMMpMW0RJ31x1MDAxZFZcdTAwMTNcdTAwMDHfW5Q/pVx0XHUwMDE0rk9cdTAwMTWDMM6drymLOlx1MDAwN0+/XGbTd/H2a7Ez+jR0biN+437411x1MDAwN1FcdTAwMWNvXHUwMDE3R3E1zzyljfB1eZGl39yfUb9cdTAwMTie7katvO2tLJ3sXHUwMDBmXHUwMDEzl5f7XHUwMDAx09J0XHUwMDFj9qLiqFxcXHUwMDE4+NIw2a/68CXl+rpcdTAwMDJcdTAwMDLJmJZcdTAwMTKFXHUwMDE2qCyqaX3ZQ5dcdTAwMDFcdTAwMGaM4bqsNFx1MDAxMiTOTG09jdOsnNo9XHUwMDA3XHUwMDFjOfrJ7YW9b/s0w6Q/bVNkYZKPw4yO0Lc7OF00ilx1MDAwMI21gIxcdGGZ5NMmQ1x1MDAxN+1cdTAwMGaLckGcXHUwMDA3WlkuOLdcdTAwMDJcdTAwMDRnvk3uqnMxVGaZ0X5cdTAwMTnlXHUwMDFjxi/7XHUwMDE1Zj77w8jCkXtZvpFM4ri+o0n/ZEdPseXRxU5KfvlFlu03aqj0I0zG/fBcdTAwMTgrqDlDLUFzbT1cYlx0qd9mh4/T3rdcdTAwMDZ45UWYXHUwMDE1T1xik1GyP/uKS/otNXGYXHUwMDE36+loXHUwMDE0XHUwMDE1NI33aZRcdTAwMTSzLap+17IsPVx1MDAxOLpwbi+o59a6cdmdp2H5+N9WPciqXHUwMDBm098/P2xs3Vx1MDAxNVx1MDAxOEjFuZDaSqtcdTAwMTTBrP6+NoFcdTAwMDJcdTAwMDaGXHUwMDAzSm3Q2lx1MDAwYvsjXHUwMDA0XHUwMDA1XFxcdTAwMWHac8GFtdKDunyQSVx1MDAwMppWQlx1MDAwMyOYoVRcdTAwMTd22I7NqsM5VPpcdTAwMGVX6j9PcDMnWoU7LJpES5jZwlPJ4oKmLTn3SuFcdTAwMTVcdTAwMGJcdTAwMTdXrF5PfJKbo/WriNSsXHUwMDEy3KBISVx1MDAxMViGqJhiXHUwMDA2LEg9o1GcXHUwMDEwwtFIXHUwMDA0bTVcdTAwMWS6mpnab1x1MDAxNClcdTAwMTNcdTAwMTByrORcdTAwMDSieXmalyMk4CqrfotcdTAwMWWdqbiU8CAh9ErCM0iTYjv6UWlcdTAwMWacKX1cdTAwMTaOovjojFdVKKZcclx1MDAxY9w/fFA7/vBgp7GibL5cdTAwMTZH+0ll225wllx1MDAwMUVEocK0ukjHvrZHw4dk89n8dqVZtFx1MDAxZiVh3DxiOCnSLZdcdTAwMWavp8gmrr4l7sXUZFx1MDAwMpTn0tXFcTTOXHUwMDFiw1xmUdum2ShcdTAwMDNcclx1MDAxOFx1MDAwMyiaolxmtjhnNz9uPpd7ydt37Gs3fKXlqDt59/0qXHUwMDA0Jue/PVxuI2k8ibtFyTWTxGI/dsVhi4Hh0qJgXGKka2I2XHUwMDA08lx1MDAxNEarscfOpfA9xsyeU/P0NVx1MDAwMdckXHUwMDEzjGJcdTAwMWRtaTzPyimHSUokopTGclRcdTAwMDKs15pTSlx1MDAwYlU6XHUwMDBiW8pcdTAwMTDjsky/ki2hXHUwMDEwbSBXpNNcbmr1XHUwMDFl4nxxiH80L0bPP23tLLktUShcdTAwMTJo5IahlYpUXHUwMDFlZ3ypXGY0KPwgXHUwMDBmUMg4QUpcXFx1MDAwN9Tn+pLUgZbcglrQllx1MDAxNGjCOKtcdTAwMWTU7duSRS5rXHUwMDEzuGlbut97OLjfe9BsTfOVt2FP86PegkVJ1WpRpL1KgapD3/NXLM7f9Tz8uGM/oPvwJfr65Cg5er+r2fJbXHUwMDE0qEBcdTAwMTmluaKsgVx1MDAxOeuV5JjNyFx1MDAwMlxuLVx1MDAxNaNMWFOuXHUwMDAyemZqNftcdTAwMTlYJ8T5XHUwMDE2XHUwMDA11jJlbsiipNFlulJLXHUwMDBmlseiNNK6btqimJBtIOdcdTAwMWFcdTAwMDSJn25KneTiXHUwMDE4/1x1MDAxMK1HXHUwMDFiW7ti2T3KyIDsXHUwMDA3KmswlEKxXHUwMDE5VEtcdTAwMWLYyqOY5Yppey1Un+tRXGKcsnLL9UJcdTAwMTZFIFGKi9qd3F04lDFSXlx1MDAwMqvXdag/hqUh/DFsdammXHUwMDA2t+NUTSP/Lrdqu7TV7Vx1MDAxNyDldVx1MDAwMKVcdTAwMTPSen30NFaL07i3Mehyu/VcdTAwMGY8Kzbz3e6LV9zh62XnNJTJkjaK/Fx1MDAwMTVcdTAwMDB48lx1MDAxY3NcdTAwMWFMgFx1MDAwNpkp73TJ0FT7fVxiuvLP1TnNRUDhvpFcdTAwMWO0QUO22EBtXGKUXHUwMDA2KyjpXHUwMDEzZGtizq1cdTAwMTRcdTAwMDWCit9tLFxuhlx1MDAxYrxcdTAwMTLT/+t3s3TCgjJyXHQgKWsw6szN59zZXtRcdTAwMWRcdTAwMDSUNEnglFx1MDAxMklNQVxuaF3vXHUwMDBmSzNCwSTjIIG6vrjDltWs1H9eOnqQ7bc4xjJaXHUwMDAw8Cbd0YvrzvhNPoJNni671DBcdTAwMWUooVx1MDAxOMWSms6DouKzUmNcdTAwMTTFxNoyor8mXHUwMDA0nFx1MDAxM1x1MDAxM19XaZBcXIRQQVx1MDAwMcFi8Vx1MDAwM1x1MDAwNcigXHUwMDAwWS3buVx1MDAwYlmxvLbJN1x1MDAxZEBcZlx1MDAxYqOG4e2GXG7D24tcdTAwMGZcdTAwMTi2fqfLXHJpkqJcdTAwMDNooKlZnKa763uTjXBt/Yva6q2xwfaG/OvN4bJzlquAXHTCXyWl5ZdcdTAwMGZznGWMXHUwMDE5w0nNhdS16OFcdTAwMDaiXHUwMDAzxoUhOS3/atbwjS5cdTAwMDScqsh8SVc5J2WtJW5TJiuaK9Pqblx1MDAwM1x1MDAwNEr6WVx1MDAxZL//XHUwMDA3XGLV03rG5dNtON42j145XHUwMDE5ovy/XHUwMDFm21x1MDAwNe1+5/TygY476p+IoV9I53vkXHUwMDBlnjTcrFxmqqezcqInJUlddZPxa+XXv3ioXXYifQ==<!-- payload-end -->
  <defs>
    <style class="style-fonts">
      @font-face {
        font-family: "Virgil";
        src: url("https://excalidraw.com/Virgil.woff2");
      }
      @font-face {
        font-family: "Cascadia";
        src: url("https://excalidraw.com/Cascadia.woff2");
      }
      @font-face {
        font-family: "Assistant";
        src: url("https://excalidraw.com/Assistant-Regular.woff2");
      }
    </style>
    
  </defs>
  <rect x="0" y="0" width="248.66844686881888" height="195.0839302923634" fill="#ffffff"/><g stroke-linecap="round"><g transform="translate(224.18990122449256 44.748076911270346) rotate(0 -107.09495061224627 66.88467169702162)"><path d="M0 0 C-6.93 13.1, -21.17 57.74, -41.56 78.6 C-61.96 99.47, -93.59 115.99, -122.36 125.19 C-151.13 134.38, -198.88 132.34, -214.19 133.77 M0 0 C-6.93 13.1, -21.17 57.74, -41.56 78.6 C-61.96 99.47, -93.59 115.99, -122.36 125.19 C-151.13 134.38, -198.88 132.34, -214.19 133.77" stroke="#e03131" stroke-width="2" fill="none"/></g></g><mask/><g transform="translate(209.7914937438189 10) rotate(0 14.4384765625 11.5)"><text x="0" y="18.400390625" font-family="Helvetica, Segoe UI Emoji" font-size="20px" fill="#e03131" text-anchor="start" style="white-space: pre;" direction="ltr" dominant-baseline="alphabetic">f(x)</text></g><g stroke-linecap="round" transform="translate(122.75274099932852 156.79593686924204) rotate(0 4.189256237399178 4.325577946582051)"><path d="M8.38 4.33 C8.38 4.58, 8.36 4.83, 8.31 5.08 C8.27 5.32, 8.21 5.57, 8.13 5.81 C8.04 6.04, 7.94 6.27, 7.82 6.49 C7.7 6.71, 7.55 6.91, 7.4 7.11 C7.24 7.3, 7.07 7.48, 6.88 7.64 C6.7 7.8, 6.49 7.95, 6.28 8.07 C6.07 8.2, 5.85 8.3, 5.62 8.39 C5.39 8.48, 5.16 8.54, 4.92 8.59 C4.68 8.63, 4.43 8.65, 4.19 8.65 C3.95 8.65, 3.7 8.63, 3.46 8.59 C3.22 8.54, 2.98 8.48, 2.76 8.39 C2.53 8.3, 2.3 8.2, 2.09 8.07 C1.88 7.95, 1.68 7.8, 1.5 7.64 C1.31 7.48, 1.14 7.3, 0.98 7.11 C0.82 6.91, 0.68 6.71, 0.56 6.49 C0.44 6.27, 0.34 6.04, 0.25 5.81 C0.17 5.57, 0.11 5.32, 0.06 5.08 C0.02 4.83, 0 4.58, 0 4.33 C0 4.08, 0.02 3.82, 0.06 3.57 C0.11 3.33, 0.17 3.08, 0.25 2.85 C0.34 2.61, 0.44 2.38, 0.56 2.16 C0.68 1.95, 0.82 1.74, 0.98 1.55 C1.14 1.35, 1.31 1.17, 1.5 1.01 C1.68 0.85, 1.88 0.7, 2.09 0.58 C2.3 0.45, 2.53 0.35, 2.76 0.26 C2.98 0.18, 3.22 0.11, 3.46 0.07 C3.7 0.02, 3.95 0, 4.19 0 C4.43 0, 4.68 0.02, 4.92 0.07 C5.16 0.11, 5.39 0.18, 5.62 0.26 C5.85 0.35, 6.07 0.45, 6.28 0.58 C6.49 0.7, 6.7 0.85, 6.88 1.01 C7.07 1.17, 7.24 1.35, 7.4 1.55 C7.55 1.74, 7.7 1.95, 7.82 2.16 C7.94 2.38, 8.04 2.61, 8.13 2.85 C8.21 3.08, 8.27 3.33, 8.31 3.57 C8.36 3.82, 8.37 4.2, 8.38 4.33 C8.39 4.45, 8.39 4.2, 8.38 4.33" stroke="none" stroke-width="0" fill="#228be6"/><path d="M8.38 4.33 C8.38 4.58, 8.36 4.83, 8.31 5.08 C8.27 5.32, 8.21 5.57, 8.13 5.81 C8.04 6.04, 7.94 6.27, 7.82 6.49 C7.7 6.71, 7.55 6.91, 7.4 7.11 C7.24 7.3, 7.07 7.48, 6.88 7.64 C6.7 7.8, 6.49 7.95, 6.28 8.07 C6.07 8.2, 5.85 8.3, 5.62 8.39 C5.39 8.48, 5.16 8.54, 4.92 8.59 C4.68 8.63, 4.43 8.65, 4.19 8.65 C3.95 8.65, 3.7 8.63, 3.46 8.59 C3.22 8.54, 2.98 8.48, 2.76 8.39 C2.53 8.3, 2.3 8.2, 2.09 8.07 C1.88 7.95, 1.68 7.8, 1.5 7.64 C1.31 7.48, 1.14 7.3, 0.98 7.11 C0.82 6.91, 0.68 6.71, 0.56 6.49 C0.44 6.27, 0.34 6.04, 0.25 5.81 C0.17 5.57, 0.11 5.32, 0.06 5.08 C0.02 4.83, 0 4.58, 0 4.33 C0 4.08, 0.02 3.82, 0.06 3.57 C0.11 3.33, 0.17 3.08, 0.25 2.85 C0.34 2.61, 0.44 2.38, 0.56 2.16 C0.68 1.95, 0.82 1.74, 0.98 1.55 C1.14 1.35, 1.31 1.17, 1.5 1.01 C1.68 0.85, 1.88 0.7, 2.09 0.58 C2.3 0.45, 2.53 0.35, 2.76 0.26 C2.98 0.18, 3.22 0.11, 3.46 0.07 C3.7 0.02, 3.95 0, 4.19 0 C4.43 0, 4.68 0.02, 4.92 0.07 C5.16 0.11, 5.39 0.18, 5.62 0.26 C5.85 0.35, 6.07 0.45, 6.28 0.58 C6.49 0.7, 6.7 0.85, 6.88 1.01 C7.07 1.17, 7.24 1.35, 7.4 1.55 C7.55 1.74, 7.7 1.95, 7.82 2.16 C7.94 2.38, 8.04 2.61, 8.13 2.85 C8.21 3.08, 8.27 3.33, 8.31 3.57 C8.36 3.82, 8.37 4.2, 8.38 4.33 C8.39 4.45, 8.39 4.2, 8.38 4.33" stroke="#1971c2" stroke-width="0.5" fill="none"/></g><g transform="translate(64.99883441521331 123.13274846741962) rotate(0 28.876953125 11.5)"><text x="0" y="18.400390625" font-family="Helvetica, Segoe UI Emoji" font-size="20px" fill="#1971c2" text-anchor="start" style="white-space: pre;" direction="ltr" dominant-baseline="alphabetic">(c,f(c))</text></g><g stroke-linecap="round" transform="translate(158.02591993762036 136.0852269124304) rotate(0 4.189256237399178 4.325577946582051)"><path d="M8.38 4.33 C8.38 4.58, 8.36 4.83, 8.31 5.08 C8.27 5.32, 8.21 5.57, 8.13 5.81 C8.04 6.04, 7.94 6.27, 7.82 6.49 C7.7 6.71, 7.55 6.91, 7.4 7.11 C7.24 7.3, 7.07 7.48, 6.88 7.64 C6.7 7.8, 6.49 7.95, 6.28 8.07 C6.07 8.2, 5.85 8.3, 5.62 8.39 C5.39 8.48, 5.16 8.54, 4.92 8.59 C4.68 8.63, 4.43 8.65, 4.19 8.65 C3.95 8.65, 3.7 8.63, 3.46 8.59 C3.22 8.54, 2.98 8.48, 2.76 8.39 C2.53 8.3, 2.3 8.2, 2.09 8.07 C1.88 7.95, 1.68 7.8, 1.5 7.64 C1.31 7.48, 1.14 7.3, 0.98 7.11 C0.82 6.91, 0.68 6.71, 0.56 6.49 C0.44 6.27, 0.34 6.04, 0.25 5.81 C0.17 5.57, 0.11 5.32, 0.06 5.08 C0.02 4.83, 0 4.58, 0 4.33 C0 4.08, 0.02 3.82, 0.06 3.57 C0.11 3.33, 0.17 3.08, 0.25 2.85 C0.34 2.61, 0.44 2.38, 0.56 2.16 C0.68 1.95, 0.82 1.74, 0.98 1.55 C1.14 1.35, 1.31 1.17, 1.5 1.01 C1.68 0.85, 1.88 0.7, 2.09 0.58 C2.3 0.45, 2.53 0.35, 2.76 0.26 C2.98 0.18, 3.22 0.11, 3.46 0.07 C3.7 0.02, 3.95 0, 4.19 0 C4.43 0, 4.68 0.02, 4.92 0.07 C5.16 0.11, 5.39 0.18, 5.62 0.26 C5.85 0.35, 6.07 0.45, 6.28 0.58 C6.49 0.7, 6.7 0.85, 6.88 1.01 C7.07 1.17, 7.24 1.35, 7.4 1.55 C7.55 1.74, 7.7 1.95, 7.82 2.16 C7.94 2.38, 8.04 2.61, 8.13 2.85 C8.21 3.08, 8.27 3.33, 8.31 3.57 C8.36 3.82, 8.37 4.2, 8.38 4.33 C8.39 4.45, 8.39 4.2, 8.38 4.33" stroke="none" stroke-width="0" fill="#099268"/><path d="M8.38 4.33 C8.38 4.58, 8.36 4.83, 8.31 5.08 C8.27 5.32, 8.21 5.57, 8.13 5.81 C8.04 6.04, 7.94 6.27, 7.82 6.49 C7.7 6.71, 7.55 6.91, 7.4 7.11 C7.24 7.3, 7.07 7.48, 6.88 7.64 C6.7 7.8, 6.49 7.95, 6.28 8.07 C6.07 8.2, 5.85 8.3, 5.62 8.39 C5.39 8.48, 5.16 8.54, 4.92 8.59 C4.68 8.63, 4.43 8.65, 4.19 8.65 C3.95 8.65, 3.7 8.63, 3.46 8.59 C3.22 8.54, 2.98 8.48, 2.76 8.39 C2.53 8.3, 2.3 8.2, 2.09 8.07 C1.88 7.95, 1.68 7.8, 1.5 7.64 C1.31 7.48, 1.14 7.3, 0.98 7.11 C0.82 6.91, 0.68 6.71, 0.56 6.49 C0.44 6.27, 0.34 6.04, 0.25 5.81 C0.17 5.57, 0.11 5.32, 0.06 5.08 C0.02 4.83, 0 4.58, 0 4.33 C0 4.08, 0.02 3.82, 0.06 3.57 C0.11 3.33, 0.17 3.08, 0.25 2.85 C0.34 2.61, 0.44 2.38, 0.56 2.16 C0.68 1.95, 0.82 1.74, 0.98 1.55 C1.14 1.35, 1.31 1.17, 1.5 1.01 C1.68 0.85, 1.88 0.7, 2.09 0.58 C2.3 0.45, 2.53 0.35, 2.76 0.26 C2.98 0.18, 3.22 0.11, 3.46 0.07 C3.7 0.02, 3.95 0, 4.19 0 C4.43 0, 4.68 0.02, 4.92 0.07 C5.16 0.11, 5.39 0.18, 5.62 0.26 C5.85 0.35, 6.07 0.45, 6.28 0.58 C6.49 0.7, 6.7 0.85, 6.88 1.01 C7.07 1.17, 7.24 1.35, 7.4 1.55 C7.55 1.74, 7.7 1.95, 7.82 2.16 C7.94 2.38, 8.04 2.61, 8.13 2.85 C8.21 3.08, 8.27 3.33, 8.31 3.57 C8.36 3.82, 8.37 4.2, 8.38 4.33 C8.39 4.45, 8.39 4.2, 8.38 4.33" stroke="#2f9e44" stroke-width="0.5" fill="none"/></g><g transform="translate(79.45156574609325 88.63274878614749) rotate(0 51.6796875 11.5)"><text x="0" y="18.400390625" font-family="Helvetica, Segoe UI Emoji" font-size="20px" fill="#2f9e44" text-anchor="start" style="white-space: pre;" direction="ltr" dominant-baseline="alphabetic">(c+h,f(c+h))</text></g><g stroke-linecap="round"><g transform="translate(162.87478654020944 140.4505696049078) rotate(0 -17.102923512514955 10.335472902062236)"><path d="M0 0 C-9.76 5.87, -19.53 11.73, -34.41 20.67 M0 0 C-12.81 7.69, -25.61 15.39, -34.41 20.67 M-34.41 20.67 C-20.73 20.4, -7.05 20.13, 0.2 19.99 M-34.41 20.67 C-26.3 20.51, -18.19 20.35, 0.2 19.99 M0.2 19.99 C0.13 12.74, 0.05 5.48, 0 0 M0.2 19.99 C0.15 15.24, 0.1 10.48, 0 0" stroke="#1e1e1e" stroke-width="1" fill="none"/></g></g><mask/><g transform="translate(141.06635700123658 162.0839302923634) rotate(0 5.5615234375 11.5)"><text x="0" y="18.400390625" font-family="Helvetica, Segoe UI Emoji" font-size="20px" fill="#1e1e1e" text-anchor="start" style="white-space: pre;" direction="ltr" dominant-baseline="alphabetic">h</text></g><g stroke-linecap="round"><g transform="translate(128.4694364576126 162.4089679933184) rotate(0 17.117412541253614 -0.16251909461697522)"><path d="M0 0 C7.08 -0.07, 14.17 -0.13, 34.23 -0.33 M0 0 C7.34 -0.07, 14.68 -0.14, 34.23 -0.33" stroke="#1e1e1e" stroke-width="1" fill="none"/></g></g><mask/></svg>