<svg version="1.1" xmlns="http://www.w3.org/2000/svg" viewBox="0 0 866.6332676209263 504.00646301447415" width="866.6332676209263" height="504.00646301447415" class="excalidraw-svg">
  <!-- svg-source:excalidraw -->
  <!-- payload-type:application/vnd.excalidraw+json --><!-- payload-version:2 --><!-- payload-start -->eyJ2ZXJzaW9uIjoiMSIsImVuY29kaW5nIjoiYnN0cmluZyIsImNvbXByZXNzZWQiOnRydWUsImVuY29kZWQiOiJ4nO2d3XLbtlx1MDAxMsfv81x1MDAxNFx1MDAxZfemnYlQ7Fx1MDAwMlhcdTAwMDC9c+ykSe2kjp3ESc90OopF24xlSZHor3R6eVx1MDAxZaPveFx1MDAxZeEs6Fx1MDAwZtJcdTAwMTRZU45EcTqhZ1wim6BcYlx1MDAxMMBv/1x1MDAwYmCJ/PloZWU1uVx1MDAxY0WrP62sRlx1MDAxN/vdftxcdTAwMWJ3z1dcdTAwMWaH82fReFx1MDAxMlx1MDAwZlx1MDAwN5yE6d+T4el4P72yO1x1MDAxYf3044/Dj5O4XHUwMDE3d1x1MDAwN+Kkd/WFqFx1MDAxZp1Eg2TCl/yH/15Z+TP9N5dFP1x1MDAxZUTptenZXFxcdTAwMDYgi2dfXHJcdTAwMDdpZqCdXHUwMDAxXHRS0+1cdTAwMTXxoFx1MDAxN12k5ZDZzeLJXHUwMDA2559EPU446PYnUZZcdTAwMTJOrX6+fPfUbL3b/+Xz5m/dXHUwMDBmu19eXHUwMDFm+ZdJ9vWDuN/fTS77aTEnQ66HLG2SjIfH0V7cS45uKiN3vupb4+Hp4dEgmoTqgNuzw1F3P04uwzmZPXN3cJjeIztcdTAwMTOer6OBhNNcblF50lx1MDAxYdHfJodcdTAwMWJ0QFx1MDAwYk6QZKVcdTAwMDOQStpCydaH/eE4lOw7iMJPVraP3f3jQy7goHd7TTLuXHUwMDBlJqPumFx1MDAxYjC77vz6mVx1MDAxZFx1MDAxYVx1MDAwMdKCtVZpZc3tXHUwMDA1R1F8eJSEp1x1MDAxMYDSOmesRnC5KyZR2iTGO2ell1nthfxHL3ppb/k9a4dx9yR6XHUwMDExvjE47ffzlTnoXVfmTa/K+lx1MDAxNV6f+St7wHD901xcf8xyOFx1MDAxZPW6V91cdTAwMDQsXHUwMDFhXHUwMDAy0KTIutt07qPHxez7w/3jkp41Sbrj5Fx0d8d4cFj8SjToVaT0u5NkfXhyXHUwMDEyJ1xcjO1hPEiKV6T3XVx1MDAxYo+H50dRd6ou+M6VaaNwu1xmwHBkv61k/Sv94/b331x1MDAxZpdeXdXq4ehcdTAwMTRcdTAwMWI8u9mj/Od1k9S2XHUwMDA0JteLXHUwMDBilkCDXCKlNGVdKDNcdTAwMDRQ31x1MDAxMJxcdTAwMTGefTw5O5fv4y7t4mf79udRp+WGXHUwMDAwnNCaXGKsXHUwMDAxz6jrLOvUXHUwMDEwcDdcdTAwMTbkXHUwMDE0kbbKKrNIS1x1MDAwMFIoXHUwMDAz5LSxUlx1MDAwMZZYXHUwMDAy7ZSwyEbbXHUwMDEwTplcdTAwMDFuPVTkjG6dXHUwMDE5kF55VFmBv5mBm6OqycNxp7FnNFx1MDAwMUl0kZSZXHUwMDAwyFx1MDAxMV4wXHUwMDAxXHUwMDA2XHUwMDFkW1wiKPVcdTAwMDWwvlx0XHUwMDE4rL+N3iVcdTAwMWK23dRcdTAwMWIlJHhcdTAwMDZcdTAwMDa0UVx1MDAxZWxB/a1QZFi5XHUwMDE0m2dEJ02hYPNjXHUwMDFlvdDGkyO0XHUwMDFl+bNM/1FcdTAwMTVRXHUwMDA3YNXwli3217N+J2FcdTAwMTZtN45MzlrOXHUwMDAw9cFwkOzGX1K7XCLvnH3WPYn7l3e6QtqVuVx1MDAxYf/399///ZFynaB7/qZcIil8Za1cdTAwMWZcdTAwMWZcdTAwMGVSNYxcdTAwMGXuopDE7IvfJifDUZa6z0XosnqOp6tsOI5cdTAwMGbjQbdflWf3NFx1MDAxOe5Ek6unSsanUb5iouc5X848iFxcxEo3nr1cYqnQyDLxVvXJTbafxe/fXHUwMDFmnrab3Fx1MDAwZSBcYonIvrmz4K3M6V3Krlx1MDAxMWwxJdNtpGfLaVx1MDAxN8euXCJcdTAwMDHgnUaDs7BLliRcdTAwMThccktl12utId9FXHUwMDE3ym7nXHUwMDFm4J1Ka4LeqUxcdTAwMTeNL/uWlfh6XHUwMDAy1NxnS/DV9fE9voDNZ6+ffWg3vqy3glx1MDAwN9uG/Vxmp6RysuBuXHUwMDFiwVJITFx1MDAxNVx1MDAxM2KdJN866VXSKGSAsudqXHUwMDFlX408VlP5Lrp46VXV0quWIL2qOXbZMa9k1yhcdTAwMTV6TjbFkbFrZmD3zfavXHUwMDFicfdzu9ntICjhXHUwMDFjS6rXjpxTLlx1MDAxYitcXI2VhWJXWuP1nNlcIuF9oPaiJuNgXHUwMDFlM2VcdTAwMGZnV2kpKd9FXHUwMDFikN5yeKfSmpPeXHUwMDA28dW2ctpcdTAwMGJcdTAwMTRpT0bmxlFcdTAwMTm/VJ/fl1x1MDAxZt9efHz56Um7+UVcdTAwMDNcdTAwMDJ5zKZcYp3TXHUwMDEyc1YrxZdYXHUwMDBmnTHWc/80xvhiyZYuvVo6LtpcXCa6XHUwMDFmji+7LrnpgkakXHUwMDE3q6VcdTAwMTeXIL3YXHUwMDFju+ZcdTAwMWbmq4zRxlx1MDAxYShD184gvd2NN0/77/bajW6HvU5hXHUwMDE0k8lcdTAwMGYs2f2TXHUwMDA16Vx1MDAwNcFcdTAwMWUpWbDklVJBXHUwMDE5Wye9yrHbbJc6ZcX2TWmb76NccmhvOb1Tac1pb4P8XCJW8+tJSa9MXHUwMDE5v2v1+b14/Vx1MDAwZfBcdTAwMWMmbeeXXHUwMDA0XHUwMDBmZ23wji1alyFzRS9YdqylZKqs1Vx1MDAxYZQrlGyOi0xhcVFJXZtbLjF5sEvElntcdGnZnOZCKbDQLKrQIKRGXHUwMDE1z95ASor9QJVcdTAwMWboZZA+qVx1MDAwZqk83Ox/eb6x035IySlcdTAwMDNcdTAwMGVcdMH7XFy1XFxccm8lU4qA6LVkR9ni4lx1MDAxY+SZKUWJXrKDkFx1MDAxOY4lYKrBmFx1MDAwN1x1MDAwNXs8XGLTcl1tWFFcdTAwMWLUUlxy1eNYdNqxnLqyJaD1XHUwMDE5XHUwMDAyuba3+vrgdL3lnGpcdTAwMTSgrOZOr63mLod35ZR7oeC7XHUwMDAw+8GcbN1cIjm1LOtcbivCNUo45VJZb3RulX1cdJySglx1MDAwNmePO1x1MDAxNVx1MDAwZXDTvm+DqKpcXDhhXHUwMDEx1bD6JkMgUVx0qlx1MDAxYvVR3YXJ053t9bb7vVpcdJVOeLI4kFx1MDAwNK3vrtZcdTAwMTJcdPbtwKqwXHUwMDE2ZFl1W0OqhlBet2RQXHUwMDAzq82BWu74dlx1MDAxYfZ8O1x1MDAwYnB9q0JcIqtcdTAwMTVVK+2dRyzzfF/VxzT+1e6+sK/9b27txPwxfjuAz2tcdTAwMDctZ9aBUDxWVbbogF5eeaaOeFx1MDAwMOtcdTAwMWN/3I1GnjOxUkhcdTAwMTZxZK+7XHUwMDAy2lx1MDAxMDtH0npcdTAwMTbVsnhI0Fx1MDAxNFx1MDAwMrfBzsEnnndAJLtq2j0o/uJfXHUwMDFlXHUwMDEwWdHo4ehcdTAwMTTaO7vVo/znzKNfqYtnb42AJMVcdTAwMWUmlUZW7dQ3XHUwMDAyv26NtmT8abvd3IMyQofuXHUwMDE5XHUwMDE2cNmnnoqERim8Z01kXHUwMDExJVx1MDAwMlXtVUfcdlxuXHUwMDFlTj5cdTAwMWEpyHuPMkRcdTAwMTh6clx1MDAxOcH/oNhcdTAwMTQmvlxyLDWuykrpobmZqnHUXHUwMDBisshV2Vx1MDAwZuVYSad39UoyXFxJjqKVu/qcU/RZvtaE4s9SnoWvOEG16852XHRY80pd99365uDo+bOLrffnP7fbXHUwMDFjdLxAa41mS+BteDukOGdtvCDFhFpLjJ2nat/9a+2Bm9F3ZyPllWFLtURL4MhwgVx1MDAxYrNcdTAwMDTfy8eTz+Pke/zhh1LkS9ObYLs040VDTNpcdTAwMTTPZuNvdiC4O5ZOlb2tXHUwMDBm8ebB0enztePDlkOslVx1MDAxNSyi7KjzM2uNpkAxXCKnK1x1MDAxZsaZxlx1MDAxYeOp2p//aopdeKvCq5ugj1qirkKYiFHzeKnpoSijQsrbkoWj3PGpXHUwMDAwXHUwMDAyPsZcbpjLr2hcdTAwMDTn8qxcdTAwMTdccrSvfvvBOZam/FpMhvNefZx7Zyd992ln2HKcQTqBPsxtXHUwMDFiyeNzgOJcdTAwMTJcdTAwMTWSIE1eWyMloTaLw9lagVx1MDAxYZ3zIVx1MDAxZaUuzmx/0Fx1MDAxYbvMXGIu5Pojalx1MDAxMud7aV5cdTAwMWXMy2DZmmpxToMxWSXKgkI+1Kf5MDJmc29cdTAwMGLaTbNSQktcbnGYLNBcdTAwMTZ0Yaato7UgdOhBk9VOYvWbx1/Nslx1MDAxNMahXHLj5/oss/FcdFOEQEucXCJHLoIxzUVTf39cdTAwMDOMrGC5LL1cdTAwMTGUyzJe9Oy5rt5ZxPI42XDrlFxylbv1Qf5tZzf6w+LG+NV25/3Fpb2wY9psN9VWXHUwMDBilGFZWlx1MDAxYcfe9931Li80XHUwMDExYVhXYM82/7L1vJFcdTAwMDbhvXdcdTAwMTQ8fmSXXHUwMDFiXFzJyJntj/eakDVZSi/56im9lool3qKbXHUwMDAz4/PeW4Qk+31cdTAwMGZcbub8l8+hVzd9OKZcdTAwMWI9u9+j/OfMa2lAxbM35lx1MDAwMKVcdTAwMDf2+1xmlJmDw/rm4MP71529XHUwMDEz927b6+PLkyNcdTAwMWN1zJu2j8BZv4VcZjJcdTAwMWaWLdg1LzjsXHUwMDEyhLJe6kBcdTAwMTlY5Vx1MDAxNlx1MDAxN/lJllx1MDAwNDrLo2mUqHUuXHUwMDBlOjNcYsROPSuqI8mmXHUwMDBiUU4tqnlSXGI+XHUwMDFmft5cdTAwMWV7wHWYe1Pvmz24ObxcdTAwMTWAzniptLNcZqLLf1x1MDAxYlx1MDAxY1x09uLC/Fx1MDAxMFx1MDAwMHJcdTAwMGZV95pcdTAwMTevXHUwMDA1jy6d1oZccol1WVhaONIuJFx1MDAxZOtGMC9sX+67XHUwMDFkOsnFQ2VcdTAwMWM4NiFk7pZOibBcblx1MDAxZvbl8cic3Fs6RUpY7YmfyTil9J3bXHUwMDA1+Vx1MDAwNS09XHUwMDBmMYLlXHUwMDAzuu9u2qDwKZgs5yQpXHUwMDEz7KvSaaGV4l5cdTAwMTc2a2Is7i2d4dpcdNE/XHUwMDAwbFx1MDAxMZnCqZq7XHUwMDAz3313qyT6qnBGsHdcdTAwMWVmXHUwMDAxnFxmu5zMy86DzK2oT1x1MDAxOXrHQ1x1MDAxNSt92Vx1MDAwMO6ovqHHc/fHzms8XHUwMDFib/lfzkZ+uHW29XSt5Yaex3Bh8VqG0Zz2XFxcdTAwMGJFS6+F4lZwLFx1MDAwM2Fxe2Ge31xc7LxTzrNcdTAwMGY7j8XUudv5MLv1oJWVb3b+m53/ZueLdr5qns7J6pVw7YGcodL3QuL6Zn6YrG3umbWtdlt2VChcZoYtXHUwMDAyuWNwM/jCu5eaQrycXHUwMDA3T9JI73KrvnNfQlx1MDAwM2GlsU5KrL+ElvZatLTUXHUwMDFkS7hcdTAwMDDY5DyduW+irvSCRmbqSnNe9KS709X7XHUwMDBmhbBcdTAwMTbKb3yZsXxcXJ9l/+Xwxd4kaftcdTAwMWUmzJ9wyI6YXHUwMDBm21x1MDAwYjks7IGgXHUwMDAzYZL7q2HW2dNdXFyQ24OWw43XXHUwMDE03k1bYmRcdTAwMGJcdTAwMTfXSGxcdTAwMTDljrqP5fIrmllBK8164buJyWptVuHlfCBbNlx1MDAwMjupj/On/Y344/jNUctxVsiOXHUwMDFiXHUwMDE4Z1x1MDAwMrA4tSOR8sJcdTAwMTh2XHUwMDAyw06fXHUwMDAxturZteXgbIN/rZZJs1wi9sebpNneS3PpXHUwMDE1zdBcXJr1wl/srF5GI1x1MDAxZuJNsXTefFhcdTAwMWZmXHUwMDE4vDrf+KSo3TCz6lxuNDpsxe2VXHJD2Tswg1x1MDAwNcHutzaWx7BaXHUwMDExLG49nFxuW5zU87OdXHUwMDA0S9rO432TXHUwMDA342y0c7rB4JarUO3HnarYlrL05tbDXHUwMDBiXHUwMDE5L3wjheqdxlx1MDAxML1TVpdGnY7qg+zls/Wz03zubVx1MDAwNLmDjKpcdTAwMDLJ3rW3ZFRhwFxmIdyEnOdcdTAwMWJZJYlk9V5FX1x1MDAwYrI3gn1V6WdcdTAwMDRZoTSw3Ci1YFx1MDAwNVWTunw7LK1kueKSZpS5PO+ZiX50PclcdTAwMTb+n53dhKt89WaCmts47l3XW1aW1bM4On8y3eu+O0iP1UfXVlwicFx1MDAxOKWz3X89+uv/wf6X9SJ9<!-- payload-end -->
  <defs>
    <style class="style-fonts">
      @font-face {
        font-family: "Virgil";
        src: url("https://excalidraw.com/Virgil.woff2");
      }
      @font-face {
        font-family: "Cascadia";
        src: url("https://excalidraw.com/Cascadia.woff2");
      }
      @font-face {
        font-family: "Assistant";
        src: url("https://excalidraw.com/Assistant-Regular.woff2");
      }
    </style>
    
  </defs>
  <rect x="0" y="0" width="866.6332676209263" height="504.00646301447415" fill="#ffffff"/><g stroke-linecap="round"><g transform="translate(30.81096334901963 252.30673448904417) rotate(0 412.5535888671875 -0.560394287109375)"><path d="M-0.89 0.11 C136.8 0.15, 688.21 -0.29, 825.82 -0.45 M0.85 -0.88 C138.46 -1.12, 688.08 -2.46, 825.25 -2.22" stroke="#1e1e1e" stroke-width="2" fill="none"/></g></g><mask/><g stroke-linecap="round"><g transform="translate(429.20756979433213 10.019136832794175) rotate(0 5.17584228515625 241.8642578125)"><path d="M0.72 0.67 C2.54 81.32, 8.25 403.65, 10.03 483.99 M-0.37 -0.02 C1.34 80.23, 6.99 401.43, 8.92 482" stroke="#1e1e1e" stroke-width="2" fill="none"/></g></g><mask/><g transform="translate(500.67380945883434 259.33743419242444) rotate(0 14.729843139648438 11.5)"><text x="0" y="18.400390625" font-family="Helvetica, Segoe UI Emoji" font-size="20px" fill="#1e1e1e" text-anchor="start" style="white-space: pre;" direction="ltr" dominant-baseline="alphabetic">𝝅/6</text></g><g transform="translate(326.631580441472 261.18779961919097) rotate(0 18.059921264648438 11.5)"><text x="0" y="18.400390625" font-family="Helvetica, Segoe UI Emoji" font-size="20px" fill="#1e1e1e" text-anchor="start" style="white-space: pre;" direction="ltr" dominant-baseline="alphabetic">-𝝅/6</text></g><g transform="translate(592.8837019964806 260.8401817546692) rotate(0 14.729843139648438 11.5)"><text x="0" y="18.400390625" font-family="Helvetica, Segoe UI Emoji" font-size="20px" fill="#1e1e1e" text-anchor="start" style="white-space: pre;" direction="ltr" dominant-baseline="alphabetic">𝝅/3</text></g><g transform="translate(233.7714278265587 264.3848594890442) rotate(0 18.059921264648438 11.5)"><text x="0" y="18.400390625" font-family="Helvetica, Segoe UI Emoji" font-size="20px" fill="#1e1e1e" text-anchor="start" style="white-space: pre;" direction="ltr" dominant-baseline="alphabetic">-𝝅/3</text></g><g transform="translate(698.9196236018452 260.24424366949165) rotate(0 14.729843139648452 11.5)"><text x="0" y="18.400390625" font-family="Helvetica, Segoe UI Emoji" font-size="20px" fill="#1e1e1e" text-anchor="start" style="white-space: pre;" direction="ltr" dominant-baseline="alphabetic">𝝅/2</text></g><g transform="translate(142.1151821730195 265.11212980081405) rotate(0 18.059921264648438 11.5)"><text x="0" y="18.400390625" font-family="Helvetica, Segoe UI Emoji" font-size="20px" fill="#1e1e1e" text-anchor="start" style="white-space: pre;" direction="ltr" dominant-baseline="alphabetic">-𝝅/2</text></g><g transform="translate(410.87340788616405 148.82270309270586) rotate(0 5.5615234375 11.5)"><text x="0" y="18.400390625" font-family="Helvetica, Segoe UI Emoji" font-size="20px" fill="#1e1e1e" text-anchor="start" style="white-space: pre;" direction="ltr" dominant-baseline="alphabetic">1</text></g><g transform="translate(410.970669051243 58.88157216429002) rotate(0 5.5615234375 11.5)"><text x="0" y="18.400390625" font-family="Helvetica, Segoe UI Emoji" font-size="20px" fill="#1e1e1e" text-anchor="start" style="white-space: pre;" direction="ltr" dominant-baseline="alphabetic">2</text></g><g transform="translate(405.5167752659867 421.80293474472546) rotate(0 8.8916015625 11.5)"><text x="0" y="18.400390625" font-family="Helvetica, Segoe UI Emoji" font-size="20px" fill="#1e1e1e" text-anchor="start" style="white-space: pre;" direction="ltr" dominant-baseline="alphabetic">-2</text></g><g transform="translate(404.3201803718411 333.06697487402346) rotate(0 8.8916015625 11.5)"><text x="0" y="18.400390625" font-family="Helvetica, Segoe UI Emoji" font-size="20px" fill="#1e1e1e" text-anchor="start" style="white-space: pre;" direction="ltr" dominant-baseline="alphabetic">-1</text></g><g stroke-linecap="round"><g transform="translate(366.27345000875505 278.570660456866) rotate(0 0.00006103515625 -0.17803955078125)"><path d="M-0.21 0.02 C-0.19 0.07, 0.17 0.07, 0.25 -0.02 M0.32 -0.27 C0.31 -0.29, 0.12 -0.48, 0.1 -0.47" stroke="#1e1e1e" stroke-width="2" fill="none"/></g></g><mask/><g transform="translate(583.126751522268 45.71261953353405) rotate(0 125.34996032714844 11.5)"><text x="0" y="18.400390625" font-family="Helvetica, Segoe UI Emoji" font-size="20px" fill="#e03131" text-anchor="start" style="white-space: pre;" direction="ltr" dominant-baseline="alphabetic">red: translated 𝝅/4 to the left</text></g><g transform="translate(438.3766390537062 107.07214380862763) rotate(0 43.8916015625 11.5)"><text x="0" y="18.400390625" font-family="Helvetica, Segoe UI Emoji" font-size="20px" fill="#e03131" text-anchor="start" style="white-space: pre;" direction="ltr" dominant-baseline="alphabetic">(0,sqrt(2))</text></g><g transform="translate(10 39.06370521258759) rotate(0 44.18296813964844 11.5)"><text x="0" y="18.400390625" font-family="Helvetica, Segoe UI Emoji" font-size="20px" fill="#e03131" text-anchor="start" style="white-space: pre;" direction="ltr" dominant-baseline="alphabetic">(-9𝝅/12,2)</text></g><g transform="translate(339.3641738097114 40.055854069522695) rotate(0 38.62144470214844 11.5)"><text x="0" y="18.400390625" font-family="Helvetica, Segoe UI Emoji" font-size="20px" fill="#e03131" text-anchor="start" style="white-space: pre;" direction="ltr" dominant-baseline="alphabetic">(-𝝅/12,2)</text></g><g transform="translate(481.06021316761405 222.07451010266698) rotate(0 35.29136657714844 11.5)"><text x="0" y="18.400390625" font-family="Helvetica, Segoe UI Emoji" font-size="20px" fill="#e03131" text-anchor="start" style="white-space: pre;" direction="ltr" dominant-baseline="alphabetic">(𝝅/12,0)</text></g><g stroke-linecap="round"><g transform="translate(521.86164237188 276.1694307965064) rotate(0 0.9999321276181092 1.7497312635045432)"><path d="M-0.3 0.29 C0.12 0.81, 1.9 2.84, 2.27 3.31 M0.19 0.13 C0.61 0.68, 1.89 3.13, 2.12 3.67" stroke="#e03131" stroke-width="2" fill="none"/></g></g><mask/><g stroke-linecap="round"><g transform="translate(156.64816629797355 65.32375269797336) rotate(0 338.14392660122235 183.61879302186102)"><path d="M1.01 0.7 C17.28 32.13, 64.67 126.74, 96.87 187.78 C129.07 248.82, 163.49 367.6, 194.21 366.92 C224.93 366.24, 252.9 243.4, 281.2 183.72 C309.49 124.04, 335.38 8.84, 363.97 8.85 C392.56 8.85, 418.93 124.1, 452.73 183.73 C486.53 243.36, 529.42 366.48, 566.77 366.61 C604.11 366.74, 658.44 214.9, 676.79 184.51 M0.08 0.02 C16.24 31.21, 63.58 124.86, 95.78 186.21 C127.98 247.55, 162.86 368.33, 193.29 368.09 C223.72 367.84, 250.13 244.59, 278.35 184.73 C306.57 124.87, 333.34 8.71, 362.62 8.91 C391.89 9.12, 419.94 126.03, 454.01 185.98 C488.08 245.92, 530.02 368.97, 567.02 368.6 C604.02 368.23, 657.95 214.19, 676.02 183.75" stroke="#1e1e1e" stroke-width="2" fill="none"/></g></g><mask/><g stroke-linecap="round"><g transform="translate(30.65410189849382 62.36332141311624) rotate(0 338.14392660122235 183.61879302186102)"><path d="M-0.53 1.07 C15.55 32.45, 64.57 126.75, 97.11 187.89 C129.65 249.04, 164.17 368.52, 194.7 367.96 C225.22 367.39, 252.12 244.27, 280.27 184.48 C308.42 124.7, 334.87 9.43, 363.6 9.25 C392.33 9.07, 418.55 123.55, 452.66 183.41 C486.78 243.28, 530.93 368.01, 568.3 368.42 C605.67 368.84, 658.82 216.39, 676.89 185.92 M1.39 0.58 C17.25 31.7, 64.04 125.48, 96.15 186.38 C128.26 247.28, 163.3 366.7, 194.03 366 C224.77 365.31, 252.59 241.65, 280.59 182.24 C308.59 122.82, 333.16 8.98, 362.05 9.53 C390.93 10.07, 419.97 125.8, 453.91 185.5 C487.86 245.19, 528.66 367.63, 565.7 367.7 C602.75 367.77, 657.92 216.45, 676.18 185.91" stroke="#e03131" stroke-width="2" fill="none"/></g></g><mask/><g transform="translate(680.1808043783215 220.32188196504922) rotate(0 40.85289001464844 11.5)"><text x="0" y="18.400390625" font-family="Helvetica, Segoe UI Emoji" font-size="20px" fill="#e03131" text-anchor="start" style="white-space: pre;" direction="ltr" dominant-baseline="alphabetic">(5𝝅/12,0)</text></g><g transform="translate(315.83078753275976 225.00268306373653) rotate(0 44.18296813964844 11.5)"><text x="0" y="18.400390625" font-family="Helvetica, Segoe UI Emoji" font-size="20px" fill="#e03131" text-anchor="start" style="white-space: pre;" direction="ltr" dominant-baseline="alphabetic">(-3𝝅/12,0)</text></g><g transform="translate(124.73832880720397 227.14910534848786) rotate(0 44.18296813964844 11.5)"><text x="0" y="18.400390625" font-family="Helvetica, Segoe UI Emoji" font-size="20px" fill="#e03131" text-anchor="start" style="white-space: pre;" direction="ltr" dominant-baseline="alphabetic">(-7𝝅/12,0)</text></g><g transform="translate(565.9088049071554 438.1902593015834) rotate(0 33.05992126464844 11.5)"><text x="0" y="18.400390625" font-family="Helvetica, Segoe UI Emoji" font-size="20px" fill="#e03131" text-anchor="start" style="white-space: pre;" direction="ltr" dominant-baseline="alphabetic">(𝝅/4,-2)</text></g><g transform="translate(176.34335833690295 437.2717116432133) rotate(0 47.51304626464844 11.5)"><text x="0" y="18.400390625" font-family="Helvetica, Segoe UI Emoji" font-size="20px" fill="#e03131" text-anchor="start" style="white-space: pre;" direction="ltr" dominant-baseline="alphabetic">(-5𝝅/12,-2)</text></g></svg>