<svg version="1.1" viewBox="0.0 0.0 920.9291338582677 450.3359580052493" fill="none" stroke="none" stroke-linecap="square" stroke-miterlimit="10" xmlns:xlink="http://www.w3.org/1999/xlink" xmlns="http://www.w3.org/2000/svg"><rect x="0" y="0" width="10000" height="10000" fill="#fff"/><clipPath id="p.0"><path d="m0 0l920.92914 0l0 450.33597l-920.92914 0l0 -450.33597z" clip-rule="nonzero"/></clipPath><g clip-path="url(#p.0)"><path fill="#000000" fill-opacity="0.0" d="m0 0l920.92914 0l0 450.33597l-920.92914 0z" fill-rule="evenodd"/><path fill="#ffffff" d="m382.9112 60.695538l0 0c0 -20.482372 16.153015 -37.086617 36.078766 -37.086617l0 0c9.568665 0 18.745422 3.9073296 25.511505 10.862417c6.766083 6.9550896 10.56723 16.388218 10.56723 26.224197l0 0c0 20.482372 -16.153015 37.086613 -36.078735 37.086613l0 0c-19.92575 0 -36.078766 -16.60424 -36.078766 -37.086613z" fill-rule="evenodd"/><path stroke="#000000" stroke-width="2.0" stroke-linejoin="round" stroke-linecap="butt" d="m382.9112 60.695538l0 0c0 -20.482372 16.153015 -37.086617 36.078766 -37.086617l0 0c9.568665 0 18.745422 3.9073296 25.511505 10.862417c6.766083 6.9550896 10.56723 16.388218 10.56723 26.224197l0 0c0 20.482372 -16.153015 37.086613 -36.078735 37.086613l0 0c-19.92575 0 -36.078766 -16.60424 -36.078766 -37.086613z" fill-rule="evenodd"/><path fill="#000000" d="m574.2551 23.608923l72.15753 0l0 74.173225l-72.15753 0z" fill-rule="evenodd"/><path stroke="#000000" stroke-width="2.0" stroke-linejoin="round" stroke-linecap="butt" d="m574.2551 23.608923l72.15753 0l0 74.173225l-72.15753 0z" fill-rule="evenodd"/><path fill="#000000" fill-opacity="0.0" d="m455.0687 60.695538l119.18112 0" fill-rule="evenodd"/><path stroke="#000000" stroke-width="2.0" stroke-linejoin="round" stroke-linecap="butt" d="m455.0687 60.695538l119.18112 0" fill-rule="evenodd"/><path fill="#000000" fill-opacity="0.0" d="m514.73883 127.78215l-0.1574707 -67.08661" fill-rule="evenodd"/><path stroke="#000000" stroke-width="2.0" stroke-linejoin="round" stroke-linecap="butt" d="m514.73883 127.78215l-0.1574707 -67.08661" fill-rule="evenodd"/><path fill="#000000" fill-opacity="0.0" d="m295.13123 129.32545l325.07086 -1.5433044" fill-rule="evenodd"/><path stroke="#000000" stroke-width="2.0" stroke-linejoin="round" stroke-linecap="butt" d="m295.13123 129.32545l325.07086 -1.5433044" fill-rule="evenodd"/><path fill="#000000" d="m259.23416 184.91602l72.15747 0l0 74.17322l-72.15747 0z" fill-rule="evenodd"/><path stroke="#000000" stroke-width="1.0" stroke-linejoin="round" stroke-linecap="butt" d="m259.23416 184.91602l72.15747 0l0 74.17322l-72.15747 0z" fill-rule="evenodd"/><path fill="#000000" fill-opacity="0.0" d="m295.3129 184.91602l-0.62991333 -55.59056" fill-rule="evenodd"/><path stroke="#000000" stroke-width="2.0" stroke-linejoin="round" stroke-linecap="butt" d="m295.3129 184.91602l-0.62991333 -55.59056" fill-rule="evenodd"/><path fill="#000000" d="m404.25253 184.91602l72.15747 0l0 74.17322l-72.15747 0z" fill-rule="evenodd"/><path stroke="#000000" stroke-width="1.0" stroke-linejoin="round" stroke-linecap="butt" d="m404.25253 184.91602l72.15747 0l0 74.17322l-72.15747 0z" fill-rule="evenodd"/><path fill="#000000" fill-opacity="0.0" d="m440.33127 184.91602l-0.62991333 -55.59056" fill-rule="evenodd"/><path stroke="#000000" stroke-width="2.0" stroke-linejoin="round" stroke-linecap="butt" d="m440.33127 184.91602l-0.62991333 -55.59056" fill-rule="evenodd"/><path fill="#ffffff" d="m583.3443 222.00262l0 0c0 -20.482376 16.152954 -37.08661 36.078735 -37.08661l0 0c9.568665 0 18.745422 3.907318 25.511536 10.8624115c6.7660522 6.9550934 10.5672 16.388214 10.5672 26.224197l0 0c0 20.482376 -16.153015 37.08661 -36.078735 37.08661l0 0c-19.925781 0 -36.078735 -16.604233 -36.078735 -37.08661z" fill-rule="evenodd"/><path stroke="#000000" stroke-width="2.0" stroke-linejoin="round" stroke-linecap="butt" d="m583.3443 222.00262l0 0c0 -20.482376 16.152954 -37.08661 36.078735 -37.08661l0 0c9.568665 0 18.745422 3.907318 25.511536 10.8624115c6.7660522 6.9550934 10.5672 16.388214 10.5672 26.224197l0 0c0 20.482376 -16.153015 37.08661 -36.078735 37.08661l0 0c-19.925781 0 -36.078735 -16.604233 -36.078735 -37.08661z" fill-rule="evenodd"/><path fill="#000000" fill-opacity="0.0" d="m619.42303 184.91602l0.44091797 -57.133865" fill-rule="evenodd"/><path stroke="#000000" stroke-width="2.0" stroke-linejoin="round" stroke-linecap="butt" d="m619.42303 184.91602l0.44091797 -57.133865" fill-rule="evenodd"/><path fill="#ffffff" d="m748.19476 184.91602l72.15747 0l0 74.17322l-72.15747 0z" fill-rule="evenodd"/><path stroke="#000000" stroke-width="2.0" stroke-linejoin="round" stroke-linecap="butt" d="m748.19476 184.91602l72.15747 0l0 74.17322l-72.15747 0z" fill-rule="evenodd"/><path fill="#000000" fill-opacity="0.0" d="m655.5018 222.00262l92.69293 0" fill-rule="evenodd"/><path stroke="#000000" stroke-width="2.0" stroke-linejoin="round" stroke-linecap="butt" d="m655.5018 222.00262l92.69293 0" fill-rule="evenodd"/><path fill="#000000" fill-opacity="0.0" d="m701.9252 289.08923l-0.1574707 -67.08661" fill-rule="evenodd"/><path stroke="#000000" stroke-width="2.0" stroke-linejoin="round" stroke-linecap="butt" d="m701.9252 289.08923l-0.1574707 -67.08661" fill-rule="evenodd"/><path fill="#ffffff" d="m94.38365 222.00262l0 0c0 -20.482376 16.153 -37.08661 36.078735 -37.08661l0 0c9.56868 0 18.745453 3.907318 25.51152 10.8624115c6.766083 6.9550934 10.567215 16.388214 10.567215 26.224197l0 0c0 20.482376 -16.153 37.08661 -36.078735 37.08661l0 0c-19.925735 0 -36.078735 -16.604233 -36.078735 -37.08661z" fill-rule="evenodd"/><path stroke="#000000" stroke-width="2.0" stroke-linejoin="round" stroke-linecap="butt" d="m94.38365 222.00262l0 0c0 -20.482376 16.153 -37.08661 36.078735 -37.08661l0 0c9.56868 0 18.745453 3.907318 25.51152 10.8624115c6.766083 6.9550934 10.567215 16.388214 10.567215 26.224197l0 0c0 20.482376 -16.153 37.08661 -36.078735 37.08661l0 0c-19.925735 0 -36.078735 -16.604233 -36.078735 -37.08661z" fill-rule="evenodd"/><path fill="#000000" fill-opacity="0.0" d="m166.54112 222.00262l92.69292 0" fill-rule="evenodd"/><path stroke="#000000" stroke-width="2.0" stroke-linejoin="round" stroke-linecap="butt" d="m166.54112 222.00262l92.69292 0" fill-rule="evenodd"/><path fill="#000000" fill-opacity="0.0" d="m212.96457 289.08923l-0.15748596 -67.08661" fill-rule="evenodd"/><path stroke="#000000" stroke-width="2.0" stroke-linejoin="round" stroke-linecap="butt" d="m212.96457 289.08923l-0.15748596 -67.08661" fill-rule="evenodd"/><path fill="#000000" fill-opacity="0.0" d="m550.51184 289.08923l301.3228 0" fill-rule="evenodd"/><path stroke="#000000" stroke-width="2.0" stroke-linejoin="round" stroke-linecap="butt" d="m550.51184 289.08923l301.3228 0" fill-rule="evenodd"/><path fill="#ffffff" d="m514.80884 381.97113l0 0c0 -20.48236 16.153015 -37.08661 36.078735 -37.08661l0 0c9.568665 0 18.745483 3.907318 25.511536 10.862396c6.7660522 6.9551086 10.5672 16.388214 10.5672 26.224213l0 0c0 20.48236 -16.153015 37.08661 -36.078735 37.08661l0 0c-19.92572 0 -36.078735 -16.604248 -36.078735 -37.08661z" fill-rule="evenodd"/><path stroke="#000000" stroke-width="2.0" stroke-linejoin="round" stroke-linecap="butt" d="m514.80884 381.97113l0 0c0 -20.48236 16.153015 -37.08661 36.078735 -37.08661l0 0c9.568665 0 18.745483 3.907318 25.511536 10.862396c6.7660522 6.9551086 10.5672 16.388214 10.5672 26.224213l0 0c0 20.48236 -16.153015 37.08661 -36.078735 37.08661l0 0c-19.92572 0 -36.078735 -16.604248 -36.078735 -37.08661z" fill-rule="evenodd"/><path fill="#000000" fill-opacity="0.0" d="m550.8876 344.88452l-0.3149414 -55.55905" fill-rule="evenodd"/><path stroke="#000000" stroke-width="2.0" stroke-linejoin="round" stroke-linecap="butt" d="m550.8876 344.88452l-0.3149414 -55.55905" fill-rule="evenodd"/><path fill="#ffffff" d="m665.7695 381.76642l0 0c0 -20.482391 16.153015 -37.08664 36.078735 -37.08664l0 0c9.568665 0 18.745483 3.9073486 25.511536 10.862427c6.7660522 6.955078 10.5672 16.388214 10.5672 26.224213l0 0c0 20.48236 -16.153015 37.08661 -36.078735 37.08661l0 0c-19.92572 0 -36.078735 -16.604248 -36.078735 -37.08661z" fill-rule="evenodd"/><path stroke="#000000" stroke-width="2.0" stroke-linejoin="round" stroke-linecap="butt" d="m665.7695 381.76642l0 0c0 -20.482391 16.153015 -37.08664 36.078735 -37.08664l0 0c9.568665 0 18.745483 3.9073486 25.511536 10.862427c6.7660522 6.955078 10.5672 16.388214 10.5672 26.224213l0 0c0 20.48236 -16.153015 37.08661 -36.078735 37.08661l0 0c-19.92572 0 -36.078735 -16.604248 -36.078735 -37.08661z" fill-rule="evenodd"/><path fill="#000000" fill-opacity="0.0" d="m701.8482 344.67978l-0.3149414 -55.55905" fill-rule="evenodd"/><path stroke="#000000" stroke-width="2.0" stroke-linejoin="round" stroke-linecap="butt" d="m701.8482 344.67978l-0.3149414 -55.55905" fill-rule="evenodd"/><path fill="#ffffff" d="m816.7302 344.67978l72.15747 0l0 74.17325l-72.15747 0z" fill-rule="evenodd"/><path stroke="#000000" stroke-width="2.0" stroke-linejoin="round" stroke-linecap="butt" d="m816.7302 344.67978l72.15747 0l0 74.17325l-72.15747 0z" fill-rule="evenodd"/><path fill="#000000" fill-opacity="0.0" d="m852.80896 344.67978l-0.62994385 -55.590546" fill-rule="evenodd"/><path stroke="#000000" stroke-width="2.0" stroke-linejoin="round" stroke-linecap="butt" d="m852.80896 344.67978l-0.62994385 -55.590546" fill-rule="evenodd"/><path fill="#000000" fill-opacity="0.0" d="m61.55118 289.32547l301.32285 0" fill-rule="evenodd"/><path stroke="#000000" stroke-width="2.0" stroke-linejoin="round" stroke-linecap="butt" d="m61.55118 289.32547l301.32285 0" fill-rule="evenodd"/><path fill="#ffffff" d="m327.76947 382.00262l0 0c0 -20.48236 16.153015 -37.08661 36.078735 -37.08661l0 0c9.568695 0 18.745453 3.907318 25.511536 10.862427c6.766083 6.955078 10.5672 16.388214 10.5672 26.224182l0 0c0 20.48236 -16.152985 37.08661 -36.078735 37.08661l0 0c-19.92572 0 -36.078735 -16.604248 -36.078735 -37.08661z" fill-rule="evenodd"/><path stroke="#000000" stroke-width="2.0" stroke-linejoin="round" stroke-linecap="butt" d="m327.76947 382.00262l0 0c0 -20.48236 16.153015 -37.08661 36.078735 -37.08661l0 0c9.568695 0 18.745453 3.907318 25.511536 10.862427c6.766083 6.955078 10.5672 16.388214 10.5672 26.224182l0 0c0 20.48236 -16.152985 37.08661 -36.078735 37.08661l0 0c-19.92572 0 -36.078735 -16.604248 -36.078735 -37.08661z" fill-rule="evenodd"/><path fill="#000000" fill-opacity="0.0" d="m363.8482 344.91602l-0.3149414 -55.55905" fill-rule="evenodd"/><path stroke="#000000" stroke-width="2.0" stroke-linejoin="round" stroke-linecap="butt" d="m363.8482 344.91602l-0.3149414 -55.55905" fill-rule="evenodd"/><path fill="#000000" d="m25.848326 344.91602l72.15748 0l0 74.17322l-72.15748 0z" fill-rule="evenodd"/><path stroke="#000000" stroke-width="1.0" stroke-linejoin="round" stroke-linecap="butt" d="m25.848326 344.91602l72.15748 0l0 74.17322l-72.15748 0z" fill-rule="evenodd"/><path fill="#000000" fill-opacity="0.0" d="m61.927067 344.91602l-0.62992096 -55.590546" fill-rule="evenodd"/><path stroke="#000000" stroke-width="2.0" stroke-linejoin="round" stroke-linecap="butt" d="m61.927067 344.91602l-0.62992096 -55.590546" fill-rule="evenodd"/><path fill="#000000" d="m176.80896 344.91602l72.15747 0l0 74.17322l-72.15747 0z" fill-rule="evenodd"/><path stroke="#000000" stroke-width="1.0" stroke-linejoin="round" stroke-linecap="butt" d="m176.80896 344.91602l72.15747 0l0 74.17322l-72.15747 0z" fill-rule="evenodd"/><path fill="#000000" fill-opacity="0.0" d="m212.8877 344.91602l-0.62991333 -55.590546" fill-rule="evenodd"/><path stroke="#000000" stroke-width="2.0" stroke-linejoin="round" stroke-linecap="butt" d="m212.8877 344.91602l-0.62991333 -55.590546" fill-rule="evenodd"/></g></svg>