<svg version="1.1" viewBox="0.0 0.0 1026.9606299212599 449.496062992126" fill="none" stroke="none" stroke-linecap="square" stroke-miterlimit="10" xmlns:xlink="http://www.w3.org/1999/xlink" xmlns="http://www.w3.org/2000/svg"><rect x="0" y="0" width="10000" height="10000" fill="#fff"/><clipPath id="p.0"><path d="m0 0l1026.9606 0l0 449.49606l-1026.9606 0l0 -449.49606z" clip-rule="nonzero"/></clipPath><g clip-path="url(#p.0)"><path fill="#000000" fill-opacity="0.0" d="m0 0l1026.9606 0l0 449.49606l-1026.9606 0z" fill-rule="evenodd"/><path fill="#000000" d="m352.26422 62.207348l0 0c0 -20.482368 16.153015 -37.086613 36.078735 -37.086613l0 0c9.568695 0 18.745453 3.9073277 25.511536 10.862419c6.766083 6.9550896 10.5672 16.388214 10.5672 26.224194l0 0c0 20.482372 -16.152985 37.086613 -36.078735 37.086613l0 0c-19.92572 0 -36.078735 -16.60424 -36.078735 -37.086613z" fill-rule="evenodd"/><path stroke="#000000" stroke-width="2.0" stroke-linejoin="round" stroke-linecap="butt" d="m352.26422 62.207348l0 0c0 -20.482368 16.153015 -37.086613 36.078735 -37.086613l0 0c9.568695 0 18.745453 3.9073277 25.511536 10.862419c6.766083 6.9550896 10.5672 16.388214 10.5672 26.224194l0 0c0 20.482372 -16.152985 37.086613 -36.078735 37.086613l0 0c-19.92572 0 -36.078735 -16.60424 -36.078735 -37.086613z" fill-rule="evenodd"/><path fill="#ffffff" d="m542.50055 25.120735l72.15747 0l0 74.173225l-72.15747 0z" fill-rule="evenodd"/><path stroke="#000000" stroke-width="2.0" stroke-linejoin="round" stroke-linecap="butt" d="m542.50055 25.120735l72.15747 0l0 74.173225l-72.15747 0z" fill-rule="evenodd"/><path fill="#000000" fill-opacity="0.0" d="m424.4217 62.207348l118.078735 0" fill-rule="evenodd"/><path stroke="#000000" stroke-width="2.0" stroke-linejoin="round" stroke-linecap="butt" d="m424.4217 62.207348l118.078735 0" fill-rule="evenodd"/><path fill="#000000" fill-opacity="0.0" d="m482.98688 128.44357l-0.06298828 -65.480316" fill-rule="evenodd"/><path stroke="#000000" stroke-width="2.0" stroke-linejoin="round" stroke-linecap="butt" d="m482.98688 128.44357l-0.06298828 -65.480316" fill-rule="evenodd"/><path fill="#000000" fill-opacity="0.0" d="m254.74803 128.84776l228.25197 -0.50393677" fill-rule="evenodd"/><path stroke="#000000" stroke-width="2.0" stroke-linejoin="round" stroke-linecap="butt" d="m254.74803 128.84776l228.25197 -0.50393677" fill-rule="evenodd"/><path fill="#000000" fill-opacity="0.0" d="m482.82886 128.55492l229.29132 0.28346252" fill-rule="evenodd"/><path stroke="#000000" stroke-width="2.0" stroke-linejoin="round" stroke-linecap="butt" d="m482.82886 128.55492l229.29132 0.28346252" fill-rule="evenodd"/><path fill="#ffffff" d="m218.44139 221.19948l0 0c0 -20.482376 16.153 -37.086624 36.078735 -37.086624l0 0c9.56868 0 18.745438 3.9073334 25.51152 10.862427c6.766083 6.9550934 10.56723 16.388214 10.56723 26.224197l0 0c0 20.48236 -16.153015 37.086624 -36.07875 37.086624l0 0c-19.925735 0 -36.078735 -16.604263 -36.078735 -37.086624z" fill-rule="evenodd"/><path stroke="#000000" stroke-width="2.0" stroke-linejoin="round" stroke-linecap="butt" d="m218.44139 221.19948l0 0c0 -20.482376 16.153 -37.086624 36.078735 -37.086624l0 0c9.56868 0 18.745438 3.9073334 25.51152 10.862427c6.766083 6.9550934 10.56723 16.388214 10.56723 26.224197l0 0c0 20.48236 -16.153015 37.086624 -36.07875 37.086624l0 0c-19.925735 0 -36.078735 -16.604263 -36.078735 -37.086624z" fill-rule="evenodd"/><path fill="#000000" fill-opacity="0.0" d="m254.52013 184.11285l-0.31495667 -55.55905" fill-rule="evenodd"/><path stroke="#000000" stroke-width="2.0" stroke-linejoin="round" stroke-linecap="butt" d="m254.52013 184.11285l-0.31495667 -55.55905" fill-rule="evenodd"/><path fill="#000000" fill-opacity="0.0" d="m410.994 184.2231l-0.25195312 -55.716537" fill-rule="evenodd"/><path stroke="#000000" stroke-width="2.0" stroke-linejoin="round" stroke-linecap="butt" d="m410.994 184.2231l-0.25195312 -55.716537" fill-rule="evenodd"/><path fill="#000000" d="m676.40607 183.92389l72.15747 0l0 74.17322l-72.15747 0z" fill-rule="evenodd"/><path stroke="#000000" stroke-width="2.0" stroke-linejoin="round" stroke-linecap="butt" d="m676.40607 183.92389l72.15747 0l0 74.17322l-72.15747 0z" fill-rule="evenodd"/><path fill="#000000" fill-opacity="0.0" d="m712.4848 183.92389l-0.62994385 -55.59056" fill-rule="evenodd"/><path stroke="#000000" stroke-width="2.0" stroke-linejoin="round" stroke-linecap="butt" d="m712.4848 183.92389l-0.62994385 -55.59056" fill-rule="evenodd"/><path fill="#ffffff" d="m28.203968 184.2231l72.157486 0l0 74.17323l-72.157486 0z" fill-rule="evenodd"/><path stroke="#000000" stroke-width="2.0" stroke-linejoin="round" stroke-linecap="butt" d="m28.203968 184.2231l72.157486 0l0 74.17323l-72.157486 0z" fill-rule="evenodd"/><path fill="#000000" fill-opacity="0.0" d="m100.36145 221.30971l118.078735 -0.09448242" fill-rule="evenodd"/><path stroke="#000000" stroke-width="2.0" stroke-linejoin="round" stroke-linecap="butt" d="m100.36145 221.30971l118.078735 -0.09448242" fill-rule="evenodd"/><path fill="#000000" fill-opacity="0.0" d="m159.48032 288.30185l-0.15748596 -67.086624" fill-rule="evenodd"/><path stroke="#000000" stroke-width="2.0" stroke-linejoin="round" stroke-linecap="butt" d="m159.48032 288.30185l-0.15748596 -67.086624" fill-rule="evenodd"/><path fill="#000000" d="m374.91525 184.2231l72.15747 0l0 74.17323l-72.15747 0z" fill-rule="evenodd"/><path stroke="#000000" stroke-width="2.0" stroke-linejoin="round" stroke-linecap="butt" d="m374.91525 184.2231l72.15747 0l0 74.17323l-72.15747 0z" fill-rule="evenodd"/><path fill="#000000" fill-opacity="0.0" d="m788.4173 288.08136l-0.1574707 -67.08661" fill-rule="evenodd"/><path stroke="#000000" stroke-width="2.0" stroke-linejoin="round" stroke-linecap="butt" d="m788.4173 288.08136l-0.1574707 -67.08661" fill-rule="evenodd"/><path fill="#000000" d="m828.112 221.08923l0 0c0 -20.48236 16.153015 -37.08661 36.078735 -37.08661l0 0c9.568665 0 18.745422 3.9073334 25.511536 10.8624115c6.7660522 6.9550934 10.5672 16.388214 10.5672 26.224197l0 0c0 20.482376 -16.153015 37.08661 -36.078735 37.08661l0 0c-19.92572 0 -36.078735 -16.604233 -36.078735 -37.08661z" fill-rule="evenodd"/><path stroke="#000000" stroke-width="2.0" stroke-linejoin="round" stroke-linecap="butt" d="m828.112 221.08923l0 0c0 -20.48236 16.153015 -37.08661 36.078735 -37.08661l0 0c9.568665 0 18.745422 3.9073334 25.511536 10.8624115c6.7660522 6.9550934 10.5672 16.388214 10.5672 26.224197l0 0c0 20.482376 -16.153015 37.08661 -36.078735 37.08661l0 0c-19.92572 0 -36.078735 -16.604233 -36.078735 -37.08661z" fill-rule="evenodd"/><path fill="#000000" fill-opacity="0.0" d="m748.56354 221.0105l79.55908 0.09448242" fill-rule="evenodd"/><path stroke="#000000" stroke-width="2.0" stroke-linejoin="round" stroke-linecap="butt" d="m748.56354 221.0105l79.55908 0.09448242" fill-rule="evenodd"/><path fill="#000000" fill-opacity="0.0" d="m614.65826 288.46042l347.37006 -0.3779602" fill-rule="evenodd"/><path stroke="#000000" stroke-width="2.0" stroke-linejoin="round" stroke-linecap="butt" d="m614.65826 288.46042l347.37006 -0.3779602" fill-rule="evenodd"/><path fill="#ffffff" d="m526.6146 221.30971l0 0c0 -20.48236 16.153015 -37.08661 36.078735 -37.08661l0 0c9.568665 0 18.745422 3.9073334 25.511536 10.8624115c6.7660522 6.9550934 10.5672 16.388214 10.5672 26.224197l0 0c0 20.482376 -16.153015 37.086624 -36.078735 37.086624l0 0c-19.92572 0 -36.078735 -16.604248 -36.078735 -37.086624z" fill-rule="evenodd"/><path stroke="#000000" stroke-width="2.0" stroke-linejoin="round" stroke-linecap="butt" d="m526.6146 221.30971l0 0c0 -20.48236 16.153015 -37.08661 36.078735 -37.08661l0 0c9.568665 0 18.745422 3.9073334 25.511536 10.8624115c6.7660522 6.9550934 10.5672 16.388214 10.5672 26.224197l0 0c0 20.482376 -16.153015 37.086624 -36.078735 37.086624l0 0c-19.92572 0 -36.078735 -16.604248 -36.078735 -37.086624z" fill-rule="evenodd"/><path fill="#000000" fill-opacity="0.0" d="m562.69336 184.2231l-0.3149414 -55.55905" fill-rule="evenodd"/><path stroke="#000000" stroke-width="2.0" stroke-linejoin="round" stroke-linecap="butt" d="m562.69336 184.2231l-0.3149414 -55.55905" fill-rule="evenodd"/><path fill="#000000" d="m579.47815 380.41208l0 0c0 -20.482391 16.153015 -37.08661 36.078735 -37.08661l0 0c9.568665 0 18.745422 3.907318 25.511536 10.862396c6.7660522 6.9551086 10.5672 16.388214 10.5672 26.224213l0 0c0 20.48236 -16.153015 37.08661 -36.078735 37.08661l0 0c-19.92572 0 -36.078735 -16.604248 -36.078735 -37.08661z" fill-rule="evenodd"/><path stroke="#000000" stroke-width="2.0" stroke-linejoin="round" stroke-linecap="butt" d="m579.47815 380.41208l0 0c0 -20.482391 16.153015 -37.08661 36.078735 -37.08661l0 0c9.568665 0 18.745422 3.907318 25.511536 10.862396c6.7660522 6.9551086 10.5672 16.388214 10.5672 26.224213l0 0c0 20.48236 -16.153015 37.08661 -36.078735 37.08661l0 0c-19.92572 0 -36.078735 -16.604248 -36.078735 -37.08661z" fill-rule="evenodd"/><path fill="#000000" fill-opacity="0.0" d="m615.71436 343.6404l-0.3149414 -55.55905" fill-rule="evenodd"/><path stroke="#000000" stroke-width="2.0" stroke-linejoin="round" stroke-linecap="butt" d="m615.71436 343.6404l-0.3149414 -55.55905" fill-rule="evenodd"/><path fill="#000000" fill-opacity="0.0" d="m70.3832 287.93176l167.9685 0" fill-rule="evenodd"/><path stroke="#000000" stroke-width="2.0" stroke-linejoin="round" stroke-linecap="butt" d="m70.3832 287.93176l167.9685 0" fill-rule="evenodd"/><path fill="#000000" d="m926.1286 343.7356l72.15747 0l0 73.76376l-72.15747 0z" fill-rule="evenodd"/><path stroke="#000000" stroke-width="2.0" stroke-linejoin="round" stroke-linecap="butt" d="m926.1286 343.7356l72.15747 0l0 73.76376l-72.15747 0z" fill-rule="evenodd"/><path fill="#000000" fill-opacity="0.0" d="m962.20734 343.7356l-0.6298828 -55.275604" fill-rule="evenodd"/><path stroke="#000000" stroke-width="2.0" stroke-linejoin="round" stroke-linecap="butt" d="m962.20734 343.7356l-0.6298828 -55.275604" fill-rule="evenodd"/><path fill="#000000" d="m752.8037 343.6719l72.15747 0l0 74.17325l-72.15747 0z" fill-rule="evenodd"/><path stroke="#000000" stroke-width="2.0" stroke-linejoin="round" stroke-linecap="butt" d="m752.8037 343.6719l72.15747 0l0 74.17325l-72.15747 0z" fill-rule="evenodd"/><path fill="#000000" fill-opacity="0.0" d="m788.88245 343.6719l-0.62994385 -55.590546" fill-rule="evenodd"/><path stroke="#000000" stroke-width="2.0" stroke-linejoin="round" stroke-linecap="butt" d="m788.88245 343.6719l-0.62994385 -55.590546" fill-rule="evenodd"/><path fill="#000000" d="m35.13179 343.75067l72.15748 0l0 74.17322l-72.15748 0z" fill-rule="evenodd"/><path stroke="#000000" stroke-width="2.0" stroke-linejoin="round" stroke-linecap="butt" d="m35.13179 343.75067l72.15748 0l0 74.17322l-72.15748 0z" fill-rule="evenodd"/><path fill="#000000" fill-opacity="0.0" d="m71.21053 343.75067l-0.81890106 -55.811035" fill-rule="evenodd"/><path stroke="#000000" stroke-width="2.0" stroke-linejoin="round" stroke-linecap="butt" d="m71.21053 343.75067l-0.81890106 -55.811035" fill-rule="evenodd"/><path fill="#ffffff" d="m202.4099 380.8058l0 0c0 -20.482391 16.153 -37.08664 36.078735 -37.08664l0 0c9.56868 0 18.745438 3.9073486 25.51152 10.862427c6.766083 6.9551086 10.56723 16.388214 10.56723 26.224213l0 0c0 20.48236 -16.153015 37.08661 -36.07875 37.08661l0 0c-19.925735 0 -36.078735 -16.604248 -36.078735 -37.08661z" fill-rule="evenodd"/><path stroke="#000000" stroke-width="2.0" stroke-linejoin="round" stroke-linecap="butt" d="m202.4099 380.8058l0 0c0 -20.482391 16.153 -37.08664 36.078735 -37.08664l0 0c9.56868 0 18.745438 3.9073486 25.51152 10.862427c6.766083 6.9551086 10.56723 16.388214 10.56723 26.224213l0 0c0 20.48236 -16.153015 37.08661 -36.07875 37.08661l0 0c-19.925735 0 -36.078735 -16.604248 -36.078735 -37.08661z" fill-rule="evenodd"/><path fill="#000000" fill-opacity="0.0" d="m238.48863 343.71915l-0.31495667 -55.55905" fill-rule="evenodd"/><path stroke="#000000" stroke-width="2.0" stroke-linejoin="round" stroke-linecap="butt" d="m238.48863 343.71915l-0.31495667 -55.55905" fill-rule="evenodd"/></g></svg>