<svg version="1.1" viewBox="0.0 0.0 751.6850393700787 456.7217847769029" fill="none" stroke="none" stroke-linecap="square" stroke-miterlimit="10" xmlns:xlink="http://www.w3.org/1999/xlink" xmlns="http://www.w3.org/2000/svg"><rect x="0" y="0" width="10000" height="10000" fill="#fff"/><clipPath id="p.0"><path d="m0 0l751.68506 0l0 456.72177l-751.68506 0l0 -456.72177z" clip-rule="nonzero"/></clipPath><g clip-path="url(#p.0)"><path fill="#000000" fill-opacity="0.0" d="m0 0l751.68506 0l0 456.72177l-751.68506 0z" fill-rule="evenodd"/><path fill="#000000" d="m201.99782 63.89501l0 0c0 -20.482368 16.153 -37.086613 36.07875 -37.086613l0 0c9.568665 0 18.745453 3.9073277 25.511505 10.862419c6.766083 6.9550896 10.56723 16.388214 10.56723 26.224194l0 0c0 20.482376 -16.153015 37.086617 -36.078735 37.086617l0 0c-19.92575 0 -36.07875 -16.60424 -36.07875 -37.086617z" fill-rule="evenodd"/><path stroke="#000000" stroke-width="2.0" stroke-linejoin="round" stroke-linecap="butt" d="m201.99782 63.89501l0 0c0 -20.482368 16.153 -37.086613 36.07875 -37.086613l0 0c9.568665 0 18.745453 3.9073277 25.511505 10.862419c6.766083 6.9550896 10.56723 16.388214 10.56723 26.224194l0 0c0 20.482376 -16.153015 37.086617 -36.078735 37.086617l0 0c-19.92575 0 -36.07875 -16.60424 -36.07875 -37.086617z" fill-rule="evenodd"/><path fill="#ffffff" d="m393.34177 26.8084l72.15747 0l0 74.17323l-72.15747 0z" fill-rule="evenodd"/><path stroke="#000000" stroke-width="2.0" stroke-linejoin="round" stroke-linecap="butt" d="m393.34177 26.8084l72.15747 0l0 74.17323l-72.15747 0z" fill-rule="evenodd"/><path fill="#000000" fill-opacity="0.0" d="m274.1553 63.89501l119.18109 0" fill-rule="evenodd"/><path stroke="#000000" stroke-width="2.0" stroke-linejoin="round" stroke-linecap="butt" d="m274.1553 63.89501l119.18109 0" fill-rule="evenodd"/><path fill="#000000" fill-opacity="0.0" d="m333.8281 130.13124l-0.15750122 -67.086624" fill-rule="evenodd"/><path stroke="#000000" stroke-width="2.0" stroke-linejoin="round" stroke-linecap="butt" d="m333.8281 130.13124l-0.15750122 -67.086624" fill-rule="evenodd"/><path fill="#000000" d="m627.84296 381.72177l0 0c0 -20.48236 16.153015 -37.08661 36.078735 -37.08661l0 0c9.568665 0 18.745483 3.9073486 25.511536 10.862427c6.7660522 6.955078 10.5672 16.388214 10.5672 26.224182l0 0c0 20.482391 -16.152954 37.08664 -36.078735 37.08664l0 0c-19.92572 0 -36.078735 -16.604248 -36.078735 -37.08664z" fill-rule="evenodd"/><path stroke="#000000" stroke-width="2.0" stroke-linejoin="round" stroke-linecap="butt" d="m627.84296 381.72177l0 0c0 -20.48236 16.153015 -37.08661 36.078735 -37.08661l0 0c9.568665 0 18.745483 3.9073486 25.511536 10.862427c6.7660522 6.955078 10.5672 16.388214 10.5672 26.224182l0 0c0 20.482391 -16.152954 37.08664 -36.078735 37.08664l0 0c-19.92572 0 -36.078735 -16.604248 -36.078735 -37.08664z" fill-rule="evenodd"/><path fill="#000000" fill-opacity="0.0" d="m663.9217 344.63516l-0.3149414 -55.55905" fill-rule="evenodd"/><path stroke="#000000" stroke-width="2.0" stroke-linejoin="round" stroke-linecap="butt" d="m663.9217 344.63516l-0.3149414 -55.55905" fill-rule="evenodd"/><path fill="#000000" d="m492.42313 344.63516l72.1575 0l0 74.17325l-72.1575 0z" fill-rule="evenodd"/><path stroke="#000000" stroke-width="2.0" stroke-linejoin="round" stroke-linecap="butt" d="m492.42313 344.63516l72.1575 0l0 74.17325l-72.1575 0z" fill-rule="evenodd"/><path fill="#000000" fill-opacity="0.0" d="m528.5019 344.63516l-0.62994385 -55.590546" fill-rule="evenodd"/><path stroke="#000000" stroke-width="2.0" stroke-linejoin="round" stroke-linecap="butt" d="m528.5019 344.63516l-0.62994385 -55.590546" fill-rule="evenodd"/><path fill="#000000" fill-opacity="0.0" d="m63.43307 130.03674l444.0315 -1.5747986" fill-rule="evenodd"/><path stroke="#000000" stroke-width="2.0" stroke-linejoin="round" stroke-linecap="butt" d="m63.43307 130.03674l444.0315 -1.5747986" fill-rule="evenodd"/><path fill="#000000" d="m27.77735 222.87138l0 0c0 -20.48236 16.153002 -37.08661 36.078743 -37.08661l0 0c9.568676 0 18.745441 3.9073334 25.511524 10.862427c6.766075 6.955078 10.567215 16.388214 10.567215 26.224182l0 0c0 20.482376 -16.153 37.086624 -36.07874 37.086624l0 0c-19.92574 0 -36.078743 -16.604248 -36.078743 -37.086624z" fill-rule="evenodd"/><path stroke="#000000" stroke-width="2.0" stroke-linejoin="round" stroke-linecap="butt" d="m27.77735 222.87138l0 0c0 -20.48236 16.153002 -37.08661 36.078743 -37.08661l0 0c9.568676 0 18.745441 3.9073334 25.511524 10.862427c6.766075 6.955078 10.567215 16.388214 10.567215 26.224182l0 0c0 20.482376 -16.153 37.086624 -36.07874 37.086624l0 0c-19.92574 0 -36.078743 -16.604248 -36.078743 -37.086624z" fill-rule="evenodd"/><path fill="#000000" fill-opacity="0.0" d="m63.85609 185.78477l-0.31496048 -55.55905" fill-rule="evenodd"/><path stroke="#000000" stroke-width="2.0" stroke-linejoin="round" stroke-linecap="butt" d="m63.85609 185.78477l-0.31496048 -55.55905" fill-rule="evenodd"/><path fill="#000000" d="m163.2289 185.72179l72.157486 0l0 74.17323l-72.157486 0z" fill-rule="evenodd"/><path stroke="#000000" stroke-width="2.0" stroke-linejoin="round" stroke-linecap="butt" d="m163.2289 185.72179l72.157486 0l0 74.17323l-72.157486 0z" fill-rule="evenodd"/><path fill="#000000" fill-opacity="0.0" d="m199.30765 185.72179l-0.6299286 -55.590546" fill-rule="evenodd"/><path stroke="#000000" stroke-width="2.0" stroke-linejoin="round" stroke-linecap="butt" d="m199.30765 185.72179l-0.6299286 -55.590546" fill-rule="evenodd"/><path fill="#000000" d="m472.381 222.87007l0 0c0 -20.48236 16.153015 -37.08661 36.078766 -37.08661l0 0c9.568665 0 18.745422 3.9073334 25.511536 10.862427c6.7660522 6.955078 10.5672 16.388214 10.5672 26.224182l0 0c0 20.482376 -16.153015 37.086624 -36.078735 37.086624l0 0c-19.92575 0 -36.078766 -16.604248 -36.078766 -37.086624z" fill-rule="evenodd"/><path stroke="#000000" stroke-width="2.0" stroke-linejoin="round" stroke-linecap="butt" d="m472.381 222.87007l0 0c0 -20.48236 16.153015 -37.08661 36.078766 -37.08661l0 0c9.568665 0 18.745422 3.9073334 25.511536 10.862427c6.7660522 6.955078 10.5672 16.388214 10.5672 26.224182l0 0c0 20.482376 -16.153015 37.086624 -36.078735 37.086624l0 0c-19.92575 0 -36.078766 -16.604248 -36.078766 -37.086624z" fill-rule="evenodd"/><path fill="#000000" fill-opacity="0.0" d="m508.45978 185.78346l-1.7008057 -57.32283" fill-rule="evenodd"/><path stroke="#000000" stroke-width="2.0" stroke-linejoin="round" stroke-linecap="butt" d="m508.45978 185.78346l-1.7008057 -57.32283" fill-rule="evenodd"/><path fill="#000000" fill-opacity="0.0" d="m235.38638 222.8084l101.543304 0" fill-rule="evenodd"/><path stroke="#000000" stroke-width="2.0" stroke-linejoin="round" stroke-linecap="butt" d="m235.38638 222.8084l101.543304 0" fill-rule="evenodd"/><path fill="#000000" fill-opacity="0.0" d="m286.2349 289.89502l-0.1574707 -67.086624" fill-rule="evenodd"/><path stroke="#000000" stroke-width="2.0" stroke-linejoin="round" stroke-linecap="butt" d="m286.2349 289.89502l-0.1574707 -67.086624" fill-rule="evenodd"/><path fill="#ffffff" d="m336.92694 222.8084l0 0c0 -20.48236 16.153015 -37.08661 36.078766 -37.08661l0 0c9.568665 0 18.745422 3.9073334 25.511505 10.8624115c6.766083 6.9550934 10.56723 16.388214 10.56723 26.224197l0 0c0 20.482376 -16.153015 37.086624 -36.078735 37.086624l0 0c-19.92575 0 -36.078766 -16.604248 -36.078766 -37.086624z" fill-rule="evenodd"/><path stroke="#000000" stroke-width="2.0" stroke-linejoin="round" stroke-linecap="butt" d="m336.92694 222.8084l0 0c0 -20.48236 16.153015 -37.08661 36.078766 -37.08661l0 0c9.568665 0 18.745422 3.9073334 25.511505 10.8624115c6.766083 6.9550934 10.56723 16.388214 10.56723 26.224197l0 0c0 20.482376 -16.153015 37.086624 -36.078735 37.086624l0 0c-19.92575 0 -36.078766 -16.604248 -36.078766 -37.086624z" fill-rule="evenodd"/><path fill="#000000" fill-opacity="0.0" d="m544.5385 222.87007l101.543274 0" fill-rule="evenodd"/><path stroke="#000000" stroke-width="2.0" stroke-linejoin="round" stroke-linecap="butt" d="m544.5385 222.87007l101.543274 0" fill-rule="evenodd"/><path fill="#000000" fill-opacity="0.0" d="m595.38715 289.89502l-0.1574707 -67.086624" fill-rule="evenodd"/><path stroke="#000000" stroke-width="2.0" stroke-linejoin="round" stroke-linecap="butt" d="m595.38715 289.89502l-0.1574707 -67.086624" fill-rule="evenodd"/><path fill="#ffffff" d="m646.0819 185.78477l72.15747 0l0 74.17323l-72.15747 0z" fill-rule="evenodd"/><path stroke="#000000" stroke-width="2.0" stroke-linejoin="round" stroke-linecap="butt" d="m646.0819 185.78477l72.15747 0l0 74.17323l-72.15747 0z" fill-rule="evenodd"/><path fill="#000000" fill-opacity="0.0" d="m220.43045 288.62204l136.37796 0" fill-rule="evenodd"/><path stroke="#000000" stroke-width="2.0" stroke-linejoin="round" stroke-linecap="butt" d="m220.43045 288.62204l136.37796 0" fill-rule="evenodd"/><path fill="#ffffff" d="m185.38365 381.72177l0 0c0 -20.48236 16.153 -37.08661 36.078735 -37.08661l0 0c9.56868 0 18.745453 3.9073486 25.51152 10.862427c6.766083 6.955078 10.56723 16.388214 10.56723 26.224182l0 0c0 20.482391 -16.153015 37.08664 -36.07875 37.08664l0 0c-19.925735 0 -36.078735 -16.604248 -36.078735 -37.08664z" fill-rule="evenodd"/><path stroke="#000000" stroke-width="2.0" stroke-linejoin="round" stroke-linecap="butt" d="m185.38365 381.72177l0 0c0 -20.48236 16.153 -37.08661 36.078735 -37.08661l0 0c9.56868 0 18.745453 3.9073486 25.51152 10.862427c6.766083 6.955078 10.56723 16.388214 10.56723 26.224182l0 0c0 20.482391 -16.153015 37.08664 -36.07875 37.08664l0 0c-19.925735 0 -36.078735 -16.604248 -36.078735 -37.08664z" fill-rule="evenodd"/><path fill="#000000" fill-opacity="0.0" d="m221.46239 344.63516l-0.31495667 -55.55905" fill-rule="evenodd"/><path stroke="#000000" stroke-width="2.0" stroke-linejoin="round" stroke-linecap="butt" d="m221.46239 344.63516l-0.31495667 -55.55905" fill-rule="evenodd"/><path fill="#ffffff" d="m320.86407 344.63516l72.15747 0l0 74.17325l-72.15747 0z" fill-rule="evenodd"/><path stroke="#000000" stroke-width="2.0" stroke-linejoin="round" stroke-linecap="butt" d="m320.86407 344.63516l72.15747 0l0 74.17325l-72.15747 0z" fill-rule="evenodd"/><path fill="#000000" fill-opacity="0.0" d="m356.9428 344.63516l-0.62991333 -55.590546" fill-rule="evenodd"/><path stroke="#000000" stroke-width="2.0" stroke-linejoin="round" stroke-linecap="butt" d="m356.9428 344.63516l-0.62991333 -55.590546" fill-rule="evenodd"/><path fill="#000000" fill-opacity="0.0" d="m527.1207 288.62204l136.37793 0" fill-rule="evenodd"/><path stroke="#000000" stroke-width="2.0" stroke-linejoin="round" stroke-linecap="butt" d="m527.1207 288.62204l136.37793 0" fill-rule="evenodd"/></g></svg>