<svg version="1.1" viewBox="0.0 0.0 999.2782152230972 432.5538057742782" fill="none" stroke="none" stroke-linecap="square" stroke-miterlimit="10" xmlns:xlink="http://www.w3.org/1999/xlink" xmlns="http://www.w3.org/2000/svg"><rect x="0" y="0" width="10000" height="10000" fill="#fff"/><clipPath id="p.0"><path d="m0 0l999.2782 0l0 432.5538l-999.2782 0l0 -432.5538z" clip-rule="nonzero"/></clipPath><g clip-path="url(#p.0)"><path fill="#000000" fill-opacity="0.0" d="m0 0l999.2782 0l0 432.5538l-999.2782 0z" fill-rule="evenodd"/><path fill="#000000" fill-opacity="0.0" d="m149.04375 54.026245l118.110245 0" fill-rule="evenodd"/><path stroke="#000000" stroke-width="2.0" stroke-linejoin="round" stroke-linecap="butt" d="m149.04375 54.026245l118.110245 0" fill-rule="evenodd"/><path fill="#ffffff" d="m76.88628 54.026245l0 0c0 -20.482368 16.153 -37.086613 36.078735 -37.086613l0 0c9.56868 0 18.745453 3.9073296 25.51152 10.862417c6.766083 6.9550915 10.567215 16.388216 10.567215 26.224195l0 0c0 20.482376 -16.153 37.086617 -36.078735 37.086617l0 0c-19.925735 0 -36.078735 -16.60424 -36.078735 -37.086617z" fill-rule="evenodd"/><path stroke="#000000" stroke-width="2.0" stroke-linejoin="round" stroke-linecap="butt" d="m76.88628 54.026245l0 0c0 -20.482368 16.153 -37.086613 36.078735 -37.086613l0 0c9.56868 0 18.745453 3.9073296 25.51152 10.862417c6.766083 6.9550915 10.567215 16.388216 10.567215 26.224195l0 0c0 20.482376 -16.153 37.086617 -36.078735 37.086617l0 0c-19.925735 0 -36.078735 -16.60424 -36.078735 -37.086617z" fill-rule="evenodd"/><path fill="#000000" d="m267.1541 16.939632l72.15747 0l0 74.17323l-72.15747 0z" fill-rule="evenodd"/><path stroke="#000000" stroke-width="2.0" stroke-linejoin="round" stroke-linecap="butt" d="m267.1541 16.939632l72.15747 0l0 74.17323l-72.15747 0z" fill-rule="evenodd"/><path fill="#000000" fill-opacity="0.0" d="m536.0779 54.026245l118.11023 0" fill-rule="evenodd"/><path stroke="#000000" stroke-width="2.0" stroke-linejoin="round" stroke-linecap="butt" d="m536.0779 54.026245l118.11023 0" fill-rule="evenodd"/><path fill="#ffffff" d="m463.92038 54.026245l0 0c0 -20.482368 16.153015 -37.086613 36.078766 -37.086613l0 0c9.568665 0 18.745422 3.9073296 25.511536 10.862417c6.7660522 6.9550915 10.5672 16.388216 10.5672 26.224195l0 0c0 20.482376 -16.153015 37.086617 -36.078735 37.086617l0 0c-19.92575 0 -36.078766 -16.60424 -36.078766 -37.086617z" fill-rule="evenodd"/><path stroke="#000000" stroke-width="2.0" stroke-linejoin="round" stroke-linecap="butt" d="m463.92038 54.026245l0 0c0 -20.482368 16.153015 -37.086613 36.078766 -37.086613l0 0c9.568665 0 18.745422 3.9073296 25.511536 10.862417c6.7660522 6.9550915 10.5672 16.388216 10.5672 26.224195l0 0c0 20.482376 -16.153015 37.086617 -36.078735 37.086617l0 0c-19.92575 0 -36.078766 -16.60424 -36.078766 -37.086617z" fill-rule="evenodd"/><path fill="#ffffff" d="m654.18823 16.939632l72.15747 0l0 74.17323l-72.15747 0z" fill-rule="evenodd"/><path stroke="#000000" stroke-width="2.0" stroke-linejoin="round" stroke-linecap="butt" d="m654.18823 16.939632l72.15747 0l0 74.17323l-72.15747 0z" fill-rule="evenodd"/><path fill="#ffffff" d="m157.23535 215.48032l0 0c0 -20.482376 16.153 -37.08661 36.078735 -37.08661l0 0c9.56868 0 18.745453 3.907318 25.511536 10.8624115c6.7660675 6.9550934 10.567215 16.388214 10.567215 26.224197l0 0c0 20.482376 -16.153 37.08661 -36.07875 37.08661l0 0c-19.925735 0 -36.078735 -16.604233 -36.078735 -37.08661z" fill-rule="evenodd"/><path stroke="#000000" stroke-width="2.0" stroke-linejoin="round" stroke-linecap="butt" d="m157.23535 215.48032l0 0c0 -20.482376 16.153 -37.08661 36.078735 -37.08661l0 0c9.56868 0 18.745453 3.907318 25.511536 10.8624115c6.7660675 6.9550934 10.567215 16.388214 10.567215 26.224197l0 0c0 20.482376 -16.153 37.08661 -36.07875 37.08661l0 0c-19.925735 0 -36.078735 -16.604233 -36.078735 -37.08661z" fill-rule="evenodd"/><path fill="#ffffff" d="m17.392834 215.48032l0 0c0 -20.482376 16.153004 -37.08661 36.078743 -37.08661l0 0c9.568676 0 18.745441 3.907318 25.511517 10.8624115c6.766083 6.9550934 10.567223 16.388214 10.567223 26.224197l0 0c0 20.482376 -16.153 37.08661 -36.07874 37.08661l0 0c-19.92574 0 -36.078743 -16.604233 -36.078743 -37.08661z" fill-rule="evenodd"/><path stroke="#000000" stroke-width="2.0" stroke-linejoin="round" stroke-linecap="butt" d="m17.392834 215.48032l0 0c0 -20.482376 16.153004 -37.08661 36.078743 -37.08661l0 0c9.568676 0 18.745441 3.907318 25.511517 10.8624115c6.766083 6.9550934 10.567223 16.388214 10.567223 26.224197l0 0c0 20.482376 -16.153 37.08661 -36.07874 37.08661l0 0c-19.92574 0 -36.078743 -16.604233 -36.078743 -37.08661z" fill-rule="evenodd"/><path fill="#ffffff" d="m297.07797 178.3937l72.1575 0l0 74.17322l-72.1575 0z" fill-rule="evenodd"/><path stroke="#000000" stroke-width="2.0" stroke-linejoin="round" stroke-linecap="butt" d="m297.07797 178.3937l72.1575 0l0 74.17322l-72.1575 0z" fill-rule="evenodd"/><path fill="#000000" fill-opacity="0.0" d="m208.17848 121.11286l-0.15748596 -67.08662" fill-rule="evenodd"/><path stroke="#000000" stroke-width="2.0" stroke-linejoin="round" stroke-linecap="butt" d="m208.17848 121.11286l-0.15748596 -67.08662" fill-rule="evenodd"/><path fill="#000000" fill-opacity="0.0" d="m595.3543 123.99213l-0.3149414 -69.95276" fill-rule="evenodd"/><path stroke="#000000" stroke-width="2.0" stroke-linejoin="round" stroke-linecap="butt" d="m595.3543 123.99213l-0.3149414 -69.95276" fill-rule="evenodd"/><path fill="#000000" fill-opacity="0.0" d="m53.157482 123.64698l280.31497 -2.1732254" fill-rule="evenodd"/><path stroke="#000000" stroke-width="2.0" stroke-linejoin="round" stroke-linecap="butt" d="m53.157482 123.64698l280.31497 -2.1732254" fill-rule="evenodd"/><path fill="#000000" fill-opacity="0.0" d="m53.471577 178.3937l-0.3149643 -54.740166" fill-rule="evenodd"/><path stroke="#000000" stroke-width="2.0" stroke-linejoin="round" stroke-linecap="butt" d="m53.471577 178.3937l-0.3149643 -54.740166" fill-rule="evenodd"/><path fill="#000000" fill-opacity="0.0" d="m193.31409 178.3937l-0.1574707 -56.91339" fill-rule="evenodd"/><path stroke="#000000" stroke-width="2.0" stroke-linejoin="round" stroke-linecap="butt" d="m193.31409 178.3937l-0.1574707 -56.91339" fill-rule="evenodd"/><path fill="#000000" fill-opacity="0.0" d="m333.15674 178.3937l-0.15750122 -56.251976" fill-rule="evenodd"/><path stroke="#000000" stroke-width="2.0" stroke-linejoin="round" stroke-linecap="butt" d="m333.15674 178.3937l-0.15750122 -56.251976" fill-rule="evenodd"/><path fill="#000000" fill-opacity="0.0" d="m369.23547 215.48032l117.543304 0" fill-rule="evenodd"/><path stroke="#000000" stroke-width="2.0" stroke-linejoin="round" stroke-linecap="butt" d="m369.23547 215.48032l117.543304 0" fill-rule="evenodd"/><path fill="#000000" fill-opacity="0.0" d="m522.2152 123.64698l420.50397 -2.4881897" fill-rule="evenodd"/><path stroke="#000000" stroke-width="2.0" stroke-linejoin="round" stroke-linecap="butt" d="m522.2152 123.64698l420.50397 -2.4881897" fill-rule="evenodd"/><path fill="#000000" fill-opacity="0.0" d="m523.5066 178.01575l-1.2913818 -53.984253" fill-rule="evenodd"/><path stroke="#000000" stroke-width="2.0" stroke-linejoin="round" stroke-linecap="butt" d="m523.5066 178.01575l-1.2913818 -53.984253" fill-rule="evenodd"/><path fill="#ffffff" d="m486.78128 215.48557l0 0c0 -20.482376 16.153015 -37.08661 36.078766 -37.08661l0 0c9.568665 0 18.745422 3.907318 25.511475 10.8624115c6.7661133 6.9550934 10.567261 16.388214 10.567261 26.224197l0 0c0 20.482376 -16.153015 37.08661 -36.078735 37.08661l0 0c-19.92575 0 -36.078766 -16.604233 -36.078766 -37.08661z" fill-rule="evenodd"/><path stroke="#000000" stroke-width="2.0" stroke-linejoin="round" stroke-linecap="butt" d="m486.78128 215.48557l0 0c0 -20.482376 16.153015 -37.08661 36.078766 -37.08661l0 0c9.568665 0 18.745422 3.907318 25.511475 10.8624115c6.7661133 6.9550934 10.567261 16.388214 10.567261 26.224197l0 0c0 20.482376 -16.153015 37.08661 -36.078735 37.08661l0 0c-19.92575 0 -36.078766 -16.604233 -36.078766 -37.08661z" fill-rule="evenodd"/><path fill="#000000" d="m626.62115 213.9685l0 0c0 -20.482376 16.153015 -37.08661 36.078796 -37.08661l0 0c9.568665 0 18.745422 3.907318 25.511475 10.8624115c6.7661133 6.9550934 10.567261 16.388214 10.567261 26.224197l0 0c0 20.482376 -16.153015 37.08661 -36.078735 37.08661l0 0c-19.925781 0 -36.078796 -16.604233 -36.078796 -37.08661z" fill-rule="evenodd"/><path stroke="#000000" stroke-width="2.0" stroke-linejoin="round" stroke-linecap="butt" d="m626.62115 213.9685l0 0c0 -20.482376 16.153015 -37.08661 36.078796 -37.08661l0 0c9.568665 0 18.745422 3.907318 25.511475 10.8624115c6.7661133 6.9550934 10.567261 16.388214 10.567261 26.224197l0 0c0 20.482376 -16.153015 37.08661 -36.078735 37.08661l0 0c-19.925781 0 -36.078796 -16.604233 -36.078796 -37.08661z" fill-rule="evenodd"/><path fill="#000000" fill-opacity="0.0" d="m662.69995 176.8819l-0.31500244 -54.740166" fill-rule="evenodd"/><path stroke="#000000" stroke-width="2.0" stroke-linejoin="round" stroke-linecap="butt" d="m662.69995 176.8819l-0.31500244 -54.740166" fill-rule="evenodd"/><path fill="#ffffff" d="m906.3011 176.8819l72.15747 0l0 74.17322l-72.15747 0z" fill-rule="evenodd"/><path stroke="#000000" stroke-width="2.0" stroke-linejoin="round" stroke-linecap="butt" d="m906.3011 176.8819l72.15747 0l0 74.17322l-72.15747 0z" fill-rule="evenodd"/><path fill="#000000" fill-opacity="0.0" d="m942.3798 176.8819l-0.1574707 -56.251976" fill-rule="evenodd"/><path stroke="#000000" stroke-width="2.0" stroke-linejoin="round" stroke-linecap="butt" d="m942.3798 176.8819l-0.1574707 -56.251976" fill-rule="evenodd"/><path fill="#000000" d="m766.4612 178.39896l72.15747 0l0 74.17322l-72.15747 0z" fill-rule="evenodd"/><path stroke="#000000" stroke-width="2.0" stroke-linejoin="round" stroke-linecap="butt" d="m766.4612 178.39896l72.15747 0l0 74.17322l-72.15747 0z" fill-rule="evenodd"/><path fill="#000000" fill-opacity="0.0" d="m802.5399 178.39896l-0.1574707 -56.251976" fill-rule="evenodd"/><path stroke="#000000" stroke-width="2.0" stroke-linejoin="round" stroke-linecap="butt" d="m802.5399 178.39896l-0.1574707 -56.251976" fill-rule="evenodd"/><path fill="#000000" fill-opacity="0.0" d="m428.08792 282.56693l-0.1574707 -67.08661" fill-rule="evenodd"/><path stroke="#000000" stroke-width="2.0" stroke-linejoin="round" stroke-linecap="butt" d="m428.08792 282.56693l-0.1574707 -67.08661" fill-rule="evenodd"/><path fill="#000000" fill-opacity="0.0" d="m359.4672 281.82416l140.56693 0" fill-rule="evenodd"/><path stroke="#000000" stroke-width="2.0" stroke-linejoin="round" stroke-linecap="butt" d="m359.4672 281.82416l140.56693 0" fill-rule="evenodd"/><path fill="#ffffff" d="m324.72092 375.82416l0 0c0 -20.482391 16.153015 -37.08664 36.078735 -37.08664l0 0c9.568695 0 18.745453 3.9073486 25.511536 10.862427c6.766083 6.9551086 10.5672 16.388214 10.5672 26.224213l0 0c0 20.48236 -16.152985 37.08661 -36.078735 37.08661l0 0c-19.92572 0 -36.078735 -16.604248 -36.078735 -37.08661z" fill-rule="evenodd"/><path stroke="#000000" stroke-width="2.0" stroke-linejoin="round" stroke-linecap="butt" d="m324.72092 375.82416l0 0c0 -20.482391 16.153015 -37.08664 36.078735 -37.08664l0 0c9.568695 0 18.745453 3.9073486 25.511536 10.862427c6.766083 6.9551086 10.5672 16.388214 10.5672 26.224213l0 0c0 20.48236 -16.152985 37.08661 -36.078735 37.08661l0 0c-19.92572 0 -36.078735 -16.604248 -36.078735 -37.08661z" fill-rule="evenodd"/><path fill="#000000" fill-opacity="0.0" d="m360.79965 338.73752l-0.1574707 -56.91336" fill-rule="evenodd"/><path stroke="#000000" stroke-width="2.0" stroke-linejoin="round" stroke-linecap="butt" d="m360.79965 338.73752l-0.1574707 -56.91336" fill-rule="evenodd"/><path fill="#000000" d="m463.92038 373.6509l0 0c0 -20.48236 16.153015 -37.08661 36.078766 -37.08661l0 0c9.568665 0 18.745422 3.907318 25.511536 10.862427c6.7660522 6.955078 10.5672 16.388214 10.5672 26.224182l0 0c0 20.482391 -16.153015 37.08661 -36.078735 37.08661l0 0c-19.92575 0 -36.078766 -16.604218 -36.078766 -37.08661z" fill-rule="evenodd"/><path stroke="#000000" stroke-width="2.0" stroke-linejoin="round" stroke-linecap="butt" d="m463.92038 373.6509l0 0c0 -20.48236 16.153015 -37.08661 36.078766 -37.08661l0 0c9.568665 0 18.745422 3.907318 25.511536 10.862427c6.7660522 6.955078 10.5672 16.388214 10.5672 26.224182l0 0c0 20.482391 -16.153015 37.08661 -36.078735 37.08661l0 0c-19.92575 0 -36.078766 -16.604218 -36.078766 -37.08661z" fill-rule="evenodd"/><path fill="#000000" fill-opacity="0.0" d="m499.99915 336.5643l-0.31497192 -54.740143" fill-rule="evenodd"/><path stroke="#000000" stroke-width="2.0" stroke-linejoin="round" stroke-linecap="butt" d="m499.99915 336.5643l-0.31497192 -54.740143" fill-rule="evenodd"/></g></svg>