<svg version="1.1" viewBox="0.0 0.0 955.9396325459318 437.6115485564304" fill="none" stroke="none" stroke-linecap="square" stroke-miterlimit="10" xmlns:xlink="http://www.w3.org/1999/xlink" xmlns="http://www.w3.org/2000/svg"><rect x="0" y="0" width="10000" height="10000" fill="#fff"/><clipPath id="p.0"><path d="m0 0l955.93964 0l0 437.61154l-955.93964 0l0 -437.61154z" clip-rule="nonzero"/></clipPath><g clip-path="url(#p.0)"><path fill="#000000" fill-opacity="0.0" d="m0 0l955.93964 0l0 437.61154l-955.93964 0z" fill-rule="evenodd"/><path fill="#000000" d="m299.19205 60.700787l0 0c0 -20.482372 16.153015 -37.086613 36.078735 -37.086613l0 0c9.568695 0 18.745453 3.9073277 25.511536 10.862415c6.7660522 6.9550896 10.5672 16.388218 10.5672 26.224197l0 0c0 20.482372 -16.152985 37.086613 -36.078735 37.086613l0 0c-19.92572 0 -36.078735 -16.60424 -36.078735 -37.086613z" fill-rule="evenodd"/><path stroke="#000000" stroke-width="2.0" stroke-linejoin="round" stroke-linecap="butt" d="m299.19205 60.700787l0 0c0 -20.482372 16.153015 -37.086613 36.078735 -37.086613l0 0c9.568695 0 18.745453 3.9073277 25.511536 10.862415c6.7660522 6.9550896 10.5672 16.388218 10.5672 26.224197l0 0c0 20.482372 -16.152985 37.086613 -36.078735 37.086613l0 0c-19.92572 0 -36.078735 -16.60424 -36.078735 -37.086613z" fill-rule="evenodd"/><path fill="#ffffff" d="m490.53598 23.614174l72.1575 0l0 74.173225l-72.1575 0z" fill-rule="evenodd"/><path stroke="#000000" stroke-width="2.0" stroke-linejoin="round" stroke-linecap="butt" d="m490.53598 23.614174l72.1575 0l0 74.173225l-72.1575 0z" fill-rule="evenodd"/><path fill="#000000" fill-opacity="0.0" d="m371.34952 60.700787l119.18112 0" fill-rule="evenodd"/><path stroke="#000000" stroke-width="2.0" stroke-linejoin="round" stroke-linecap="butt" d="m371.34952 60.700787l119.18112 0" fill-rule="evenodd"/><path fill="#000000" fill-opacity="0.0" d="m431.0223 127.7874l-0.1574707 -67.08661" fill-rule="evenodd"/><path stroke="#000000" stroke-width="2.0" stroke-linejoin="round" stroke-linecap="butt" d="m431.0223 127.7874l-0.1574707 -67.08661" fill-rule="evenodd"/><path fill="#000000" fill-opacity="0.0" d="m250.18898 128.7559l377.00787 -0.4409485" fill-rule="evenodd"/><path stroke="#000000" stroke-width="2.0" stroke-linejoin="round" stroke-linecap="butt" d="m250.18898 128.7559l377.00787 -0.4409485" fill-rule="evenodd"/><path fill="#ffffff" d="m463.8339 184.34645l72.1575 0l0 74.17323l-72.1575 0z" fill-rule="evenodd"/><path stroke="#000000" stroke-width="2.0" stroke-linejoin="round" stroke-linecap="butt" d="m463.8339 184.34645l72.1575 0l0 74.17323l-72.1575 0z" fill-rule="evenodd"/><path fill="#000000" fill-opacity="0.0" d="m499.91263 184.34645l-0.62991333 -55.590546" fill-rule="evenodd"/><path stroke="#000000" stroke-width="2.0" stroke-linejoin="round" stroke-linecap="butt" d="m499.91263 184.34645l-0.62991333 -55.590546" fill-rule="evenodd"/><path fill="#000000" d="m591.16064 184.37796l72.15747 0l0 74.17322l-72.15747 0z" fill-rule="evenodd"/><path stroke="#000000" stroke-width="2.0" stroke-linejoin="round" stroke-linecap="butt" d="m591.16064 184.37796l72.15747 0l0 74.17322l-72.15747 0z" fill-rule="evenodd"/><path fill="#000000" fill-opacity="0.0" d="m627.2394 184.37796l-0.6298828 -55.59056" fill-rule="evenodd"/><path stroke="#000000" stroke-width="2.0" stroke-linejoin="round" stroke-linecap="butt" d="m627.2394 184.37796l-0.6298828 -55.59056" fill-rule="evenodd"/><path fill="#ffffff" d="m214.82329 221.43307l0 0c0 -20.482376 16.153 -37.086624 36.078735 -37.086624l0 0c9.56868 0 18.745438 3.9073334 25.51152 10.862427c6.766083 6.9550934 10.56723 16.388214 10.56723 26.224197l0 0c0 20.48236 -16.153015 37.08661 -36.07875 37.08661l0 0c-19.925735 0 -36.078735 -16.604248 -36.078735 -37.08661z" fill-rule="evenodd"/><path stroke="#000000" stroke-width="2.0" stroke-linejoin="round" stroke-linecap="butt" d="m214.82329 221.43307l0 0c0 -20.482376 16.153 -37.086624 36.078735 -37.086624l0 0c9.56868 0 18.745438 3.9073334 25.51152 10.862427c6.766083 6.9550934 10.56723 16.388214 10.56723 26.224197l0 0c0 20.48236 -16.153015 37.08661 -36.07875 37.08661l0 0c-19.925735 0 -36.078735 -16.604248 -36.078735 -37.08661z" fill-rule="evenodd"/><path fill="#000000" fill-opacity="0.0" d="m250.90202 184.34645l-0.31495667 -55.55905" fill-rule="evenodd"/><path stroke="#000000" stroke-width="2.0" stroke-linejoin="round" stroke-linecap="butt" d="m250.90202 184.34645l-0.31495667 -55.55905" fill-rule="evenodd"/><path fill="#000000" d="m339.01358 221.43307l0 0c0 -20.482376 16.152985 -37.086624 36.078735 -37.086624l0 0c9.568665 0 18.745453 3.9073334 25.511505 10.862427c6.766083 6.9550934 10.56723 16.388214 10.56723 26.224197l0 0c0 20.48236 -16.153015 37.08661 -36.078735 37.08661l0 0c-19.92575 0 -36.078735 -16.604248 -36.078735 -37.08661z" fill-rule="evenodd"/><path stroke="#000000" stroke-width="2.0" stroke-linejoin="round" stroke-linecap="butt" d="m339.01358 221.43307l0 0c0 -20.482376 16.152985 -37.086624 36.078735 -37.086624l0 0c9.568665 0 18.745453 3.9073334 25.511505 10.862427c6.766083 6.9550934 10.56723 16.388214 10.56723 26.224197l0 0c0 20.48236 -16.153015 37.08661 -36.078735 37.08661l0 0c-19.92575 0 -36.078735 -16.604248 -36.078735 -37.08661z" fill-rule="evenodd"/><path fill="#000000" fill-opacity="0.0" d="m375.09232 184.34645l-0.31497192 -55.55905" fill-rule="evenodd"/><path stroke="#000000" stroke-width="2.0" stroke-linejoin="round" stroke-linecap="butt" d="m375.09232 184.34645l-0.31497192 -55.55905" fill-rule="evenodd"/><path fill="#ffffff" d="m782.5004 221.46457l0 0c0 -20.482376 16.153015 -37.08661 36.078735 -37.08661l0 0c9.568726 0 18.745483 3.907318 25.511536 10.8624115c6.7661133 6.9550934 10.5672 16.388214 10.5672 26.224197l0 0c0 20.482376 -16.152954 37.08661 -36.078735 37.08661l0 0c-19.92572 0 -36.078735 -16.604233 -36.078735 -37.08661z" fill-rule="evenodd"/><path stroke="#000000" stroke-width="2.0" stroke-linejoin="round" stroke-linecap="butt" d="m782.5004 221.46457l0 0c0 -20.482376 16.153015 -37.08661 36.078735 -37.08661l0 0c9.568726 0 18.745483 3.907318 25.511536 10.8624115c6.7661133 6.9550934 10.5672 16.388214 10.5672 26.224197l0 0c0 20.482376 -16.152954 37.08661 -36.078735 37.08661l0 0c-19.92572 0 -36.078735 -16.604233 -36.078735 -37.08661z" fill-rule="evenodd"/><path fill="#ffffff" d="m22.253838 184.37796l72.15748 0l0 74.17322l-72.15748 0z" fill-rule="evenodd"/><path stroke="#000000" stroke-width="2.0" stroke-linejoin="round" stroke-linecap="butt" d="m22.253838 184.37796l72.15748 0l0 74.17322l-72.15748 0z" fill-rule="evenodd"/><path fill="#000000" fill-opacity="0.0" d="m663.3181 221.46457l119.18115 0" fill-rule="evenodd"/><path stroke="#000000" stroke-width="2.0" stroke-linejoin="round" stroke-linecap="butt" d="m663.3181 221.46457l119.18115 0" fill-rule="evenodd"/><path fill="#000000" fill-opacity="0.0" d="m94.411316 221.46457l120.409454 -0.03149414" fill-rule="evenodd"/><path stroke="#000000" stroke-width="2.0" stroke-linejoin="round" stroke-linecap="butt" d="m94.411316 221.46457l120.409454 -0.03149414" fill-rule="evenodd"/><path fill="#000000" fill-opacity="0.0" d="m722.98816 288.51837l-0.1574707 -67.08661" fill-rule="evenodd"/><path stroke="#000000" stroke-width="2.0" stroke-linejoin="round" stroke-linecap="butt" d="m722.98816 288.51837l-0.1574707 -67.08661" fill-rule="evenodd"/><path fill="#000000" fill-opacity="0.0" d="m154.69554 288.51968l-0.15748596 -67.08661" fill-rule="evenodd"/><path stroke="#000000" stroke-width="2.0" stroke-linejoin="round" stroke-linecap="butt" d="m154.69554 288.51968l-0.15748596 -67.08661" fill-rule="evenodd"/><path fill="#000000" fill-opacity="0.0" d="m550.0696 288.9134l232.44092 -0.3779602" fill-rule="evenodd"/><path stroke="#000000" stroke-width="2.0" stroke-linejoin="round" stroke-linecap="butt" d="m550.0696 288.9134l232.44092 -0.3779602" fill-rule="evenodd"/><path fill="#000000" fill-opacity="0.0" d="m782.49915 288.6299l118.11023 0" fill-rule="evenodd"/><path stroke="#000000" stroke-width="2.0" stroke-linejoin="round" stroke-linecap="butt" d="m782.49915 288.6299l118.11023 0" fill-rule="evenodd"/><path fill="#ffffff" d="m865.5898 344.11023l72.15747 0l0 74.17325l-72.15747 0z" fill-rule="evenodd"/><path stroke="#000000" stroke-width="2.0" stroke-linejoin="round" stroke-linecap="butt" d="m865.5898 344.11023l72.15747 0l0 74.17325l-72.15747 0z" fill-rule="evenodd"/><path fill="#000000" fill-opacity="0.0" d="m901.6685 344.11023l-0.6298828 -55.590546" fill-rule="evenodd"/><path stroke="#000000" stroke-width="2.0" stroke-linejoin="round" stroke-linecap="butt" d="m901.6685 344.11023l-0.6298828 -55.590546" fill-rule="evenodd"/><path fill="#000000" d="m744.4112 381.16534l0 0c0 -20.48236 16.153015 -37.08661 36.078735 -37.08661l0 0c9.568726 0 18.745483 3.907318 25.511536 10.862427c6.7660522 6.955078 10.5672 16.388214 10.5672 26.224182l0 0c0 20.482391 -16.152954 37.08664 -36.078735 37.08664l0 0c-19.92572 0 -36.078735 -16.604248 -36.078735 -37.08664z" fill-rule="evenodd"/><path stroke="#000000" stroke-width="2.0" stroke-linejoin="round" stroke-linecap="butt" d="m744.4112 381.16534l0 0c0 -20.48236 16.153015 -37.08661 36.078735 -37.08661l0 0c9.568726 0 18.745483 3.907318 25.511536 10.862427c6.7660522 6.955078 10.5672 16.388214 10.5672 26.224182l0 0c0 20.482391 -16.152954 37.08664 -36.078735 37.08664l0 0c-19.92572 0 -36.078735 -16.604248 -36.078735 -37.08664z" fill-rule="evenodd"/><path fill="#000000" fill-opacity="0.0" d="m780.4899 344.07874l-0.3149414 -55.55905" fill-rule="evenodd"/><path stroke="#000000" stroke-width="2.0" stroke-linejoin="round" stroke-linecap="butt" d="m780.4899 344.07874l-0.3149414 -55.55905" fill-rule="evenodd"/><path fill="#000000" d="m514.33246 381.16534l0 0c0 -20.48236 16.153015 -37.08661 36.078735 -37.08661l0 0c9.568665 0 18.745483 3.907318 25.511536 10.862427c6.7660522 6.955078 10.5672 16.388214 10.5672 26.224182l0 0c0 20.482391 -16.152954 37.08664 -36.078735 37.08664l0 0c-19.92572 0 -36.078735 -16.604248 -36.078735 -37.08664z" fill-rule="evenodd"/><path stroke="#000000" stroke-width="2.0" stroke-linejoin="round" stroke-linecap="butt" d="m514.33246 381.16534l0 0c0 -20.48236 16.153015 -37.08661 36.078735 -37.08661l0 0c9.568665 0 18.745483 3.907318 25.511536 10.862427c6.7660522 6.955078 10.5672 16.388214 10.5672 26.224182l0 0c0 20.482391 -16.152954 37.08664 -36.078735 37.08664l0 0c-19.92572 0 -36.078735 -16.604248 -36.078735 -37.08664z" fill-rule="evenodd"/><path fill="#000000" fill-opacity="0.0" d="m550.4112 344.07874l-0.3149414 -55.55905" fill-rule="evenodd"/><path stroke="#000000" stroke-width="2.0" stroke-linejoin="round" stroke-linecap="butt" d="m550.4112 344.07874l-0.3149414 -55.55905" fill-rule="evenodd"/><path fill="#ffffff" d="m629.3706 344.11023l72.15753 0l0 74.17325l-72.15753 0z" fill-rule="evenodd"/><path stroke="#000000" stroke-width="2.0" stroke-linejoin="round" stroke-linecap="butt" d="m629.3706 344.11023l72.15753 0l0 74.17325l-72.15753 0z" fill-rule="evenodd"/><path fill="#000000" fill-opacity="0.0" d="m665.4494 344.11023l-0.62994385 -55.590546" fill-rule="evenodd"/><path stroke="#000000" stroke-width="2.0" stroke-linejoin="round" stroke-linecap="butt" d="m665.4494 344.11023l-0.62994385 -55.590546" fill-rule="evenodd"/><path fill="#000000" fill-opacity="0.0" d="m96.21129 288.9449l115.55905 -0.03149414" fill-rule="evenodd"/><path stroke="#000000" stroke-width="2.0" stroke-linejoin="round" stroke-linecap="butt" d="m96.21129 288.9449l115.55905 -0.03149414" fill-rule="evenodd"/><path fill="#ffffff" d="m176.05687 381.62204l0 0c0 -20.48236 16.153015 -37.08661 36.07875 -37.08661l0 0c9.56868 0 18.745438 3.907318 25.51152 10.862427c6.7660675 6.955078 10.567215 16.388214 10.567215 26.224182l0 0c0 20.482391 -16.153 37.08661 -36.078735 37.08661l0 0c-19.925735 0 -36.07875 -16.604218 -36.07875 -37.08661z" fill-rule="evenodd"/><path stroke="#000000" stroke-width="2.0" stroke-linejoin="round" stroke-linecap="butt" d="m176.05687 381.62204l0 0c0 -20.48236 16.153015 -37.08661 36.07875 -37.08661l0 0c9.56868 0 18.745438 3.907318 25.51152 10.862427c6.7660675 6.955078 10.567215 16.388214 10.567215 26.224182l0 0c0 20.482391 -16.153 37.08661 -36.078735 37.08661l0 0c-19.925735 0 -36.07875 -16.604218 -36.07875 -37.08661z" fill-rule="evenodd"/><path fill="#000000" fill-opacity="0.0" d="m212.13562 344.53543l-0.31495667 -55.55905" fill-rule="evenodd"/><path stroke="#000000" stroke-width="2.0" stroke-linejoin="round" stroke-linecap="butt" d="m212.13562 344.53543l-0.31495667 -55.55905" fill-rule="evenodd"/><path fill="#ffffff" d="m61.016304 344.53543l72.15748 0l0 74.17322l-72.15748 0z" fill-rule="evenodd"/><path stroke="#000000" stroke-width="2.0" stroke-linejoin="round" stroke-linecap="butt" d="m61.016304 344.53543l72.15748 0l0 74.17322l-72.15748 0z" fill-rule="evenodd"/><path fill="#000000" fill-opacity="0.0" d="m97.09505 344.53543l-0.62992096 -55.590546" fill-rule="evenodd"/><path stroke="#000000" stroke-width="2.0" stroke-linejoin="round" stroke-linecap="butt" d="m97.09505 344.53543l-0.62992096 -55.590546" fill-rule="evenodd"/></g></svg>