<svg version="1.1" viewBox="0.0 0.0 859.8608923884515 443.1364829396326" fill="none" stroke="none" stroke-linecap="square" stroke-miterlimit="10" xmlns:xlink="http://www.w3.org/1999/xlink" xmlns="http://www.w3.org/2000/svg"><rect x="0" y="0" width="10000" height="10000" fill="#fff"/><clipPath id="p.0"><path d="m0 0l859.8609 0l0 443.13647l-859.8609 0l0 -443.13647z" clip-rule="nonzero"/></clipPath><g clip-path="url(#p.0)"><path fill="#000000" fill-opacity="0.0" d="m0 0l859.8609 0l0 443.13647l-859.8609 0z" fill-rule="evenodd"/><path fill="#000000" d="m92.57656 46.540684l0 0c0 -20.482372 16.153 -37.086617 36.078743 -37.086617l0 0c9.56868 0 18.745438 3.9073286 25.51152 10.862418c6.766083 6.9550896 10.567215 16.388214 10.567215 26.224197l0 0c0 20.482372 -16.153 37.086613 -36.078735 37.086613l0 0c-19.925743 0 -36.078743 -16.60424 -36.078743 -37.086613z" fill-rule="evenodd"/><path stroke="#000000" stroke-width="2.0" stroke-linejoin="round" stroke-linecap="butt" d="m92.57656 46.540684l0 0c0 -20.482372 16.153 -37.086617 36.078743 -37.086617l0 0c9.56868 0 18.745438 3.9073286 25.51152 10.862418c6.766083 6.9550896 10.567215 16.388214 10.567215 26.224197l0 0c0 20.482372 -16.153 37.086613 -36.078735 37.086613l0 0c-19.925743 0 -36.078743 -16.60424 -36.078743 -37.086613z" fill-rule="evenodd"/><path fill="#ffffff" d="m282.82602 9.454068l72.15747 0l0 74.173225l-72.15747 0z" fill-rule="evenodd"/><path stroke="#000000" stroke-width="2.0" stroke-linejoin="round" stroke-linecap="butt" d="m282.82602 9.454068l72.15747 0l0 74.173225l-72.15747 0z" fill-rule="evenodd"/><path fill="#000000" fill-opacity="0.0" d="m164.73404 46.540684l118.078735 0" fill-rule="evenodd"/><path stroke="#000000" stroke-width="2.0" stroke-linejoin="round" stroke-linecap="butt" d="m164.73404 46.540684l118.078735 0" fill-rule="evenodd"/><path fill="#000000" fill-opacity="0.0" d="m48.01181 111.42461l180.37796 0" fill-rule="evenodd"/><path stroke="#000000" stroke-width="2.0" stroke-linejoin="round" stroke-linecap="butt" d="m48.01181 111.42461l180.37796 0" fill-rule="evenodd"/><path fill="#000000" fill-opacity="0.0" d="m226.25667 111.40531l231.43309 -0.8503952" fill-rule="evenodd"/><path stroke="#000000" stroke-width="2.0" stroke-linejoin="round" stroke-linecap="butt" d="m226.25667 111.40531l231.43309 -0.8503952" fill-rule="evenodd"/><path fill="#000000" fill-opacity="0.0" d="m48.68155 167.00525l-0.62992096 -55.55905" fill-rule="evenodd"/><path stroke="#000000" stroke-width="2.0" stroke-linejoin="round" stroke-linecap="butt" d="m48.68155 167.00525l-0.62992096 -55.55905" fill-rule="evenodd"/><path fill="#000000" fill-opacity="0.0" d="m224.20735 110.28609l-0.94488525 -64.59842" fill-rule="evenodd"/><path stroke="#000000" stroke-width="2.0" stroke-linejoin="round" stroke-linecap="butt" d="m224.20735 110.28609l-0.94488525 -64.59842" fill-rule="evenodd"/><path fill="#000000" fill-opacity="0.0" d="m320.68155 167.00525l-0.62991333 -55.55905" fill-rule="evenodd"/><path stroke="#000000" stroke-width="2.0" stroke-linejoin="round" stroke-linecap="butt" d="m320.68155 167.00525l-0.62991333 -55.55905" fill-rule="evenodd"/><path fill="#000000" d="m12.602808 204.09186l0 0c0 -20.48236 16.153002 -37.08661 36.078743 -37.08661l0 0c9.568676 0 18.745445 3.9073334 25.51152 10.8624115c6.766075 6.9550934 10.567223 16.388214 10.567223 26.224197l0 0c0 20.482376 -16.153008 37.086624 -36.078743 37.086624l0 0c-19.92574 0 -36.078743 -16.604248 -36.078743 -37.086624z" fill-rule="evenodd"/><path stroke="#000000" stroke-width="2.0" stroke-linejoin="round" stroke-linecap="butt" d="m12.602808 204.09186l0 0c0 -20.48236 16.153002 -37.08661 36.078743 -37.08661l0 0c9.568676 0 18.745445 3.9073334 25.51152 10.8624115c6.766075 6.9550934 10.567223 16.388214 10.567223 26.224197l0 0c0 20.482376 -16.153008 37.086624 -36.078743 37.086624l0 0c-19.92574 0 -36.078743 -16.604248 -36.078743 -37.086624z" fill-rule="evenodd"/><path fill="#ffffff" d="m284.6028 204.09186l0 0c0 -20.48236 16.152985 -37.08661 36.078735 -37.08661l0 0c9.568665 0 18.745453 3.9073334 25.511536 10.8624115c6.7660522 6.9550934 10.5672 16.388214 10.5672 26.224197l0 0c0 20.482376 -16.152985 37.086624 -36.078735 37.086624l0 0c-19.92575 0 -36.078735 -16.604248 -36.078735 -37.086624z" fill-rule="evenodd"/><path stroke="#000000" stroke-width="2.0" stroke-linejoin="round" stroke-linecap="butt" d="m284.6028 204.09186l0 0c0 -20.48236 16.152985 -37.08661 36.078735 -37.08661l0 0c9.568665 0 18.745453 3.9073334 25.511536 10.8624115c6.7660522 6.9550934 10.5672 16.388214 10.5672 26.224197l0 0c0 20.482376 -16.152985 37.086624 -36.078735 37.086624l0 0c-19.92575 0 -36.078735 -16.604248 -36.078735 -37.086624z" fill-rule="evenodd"/><path fill="#ffffff" d="m148.60292 167.00525l72.157486 0l0 74.17323l-72.157486 0z" fill-rule="evenodd"/><path stroke="#000000" stroke-width="2.0" stroke-linejoin="round" stroke-linecap="butt" d="m148.60292 167.00525l72.157486 0l0 74.17323l-72.157486 0z" fill-rule="evenodd"/><path fill="#000000" fill-opacity="0.0" d="m184.68166 167.00525l-0.62991333 -55.590553" fill-rule="evenodd"/><path stroke="#000000" stroke-width="2.0" stroke-linejoin="round" stroke-linecap="butt" d="m184.68166 167.00525l-0.62991333 -55.590553" fill-rule="evenodd"/><path fill="#000000" fill-opacity="0.0" d="m456.68155 168.37007l0.03149414 -56.850388" fill-rule="evenodd"/><path stroke="#000000" stroke-width="2.0" stroke-linejoin="round" stroke-linecap="butt" d="m456.68155 168.37007l0.03149414 -56.850388" fill-rule="evenodd"/><path fill="#ffffff" d="m585.40594 46.540684l0 0c0 -20.482372 16.153015 -37.086617 36.078735 -37.086617l0 0c9.568665 0 18.745483 3.9073286 25.511536 10.862418c6.7660522 6.9550896 10.5672 16.388214 10.5672 26.224197l0 0c0 20.482372 -16.152954 37.086613 -36.078735 37.086613l0 0c-19.92572 0 -36.078735 -16.60424 -36.078735 -37.086613z" fill-rule="evenodd"/><path stroke="#000000" stroke-width="2.0" stroke-linejoin="round" stroke-linecap="butt" d="m585.40594 46.540684l0 0c0 -20.482372 16.153015 -37.086617 36.078735 -37.086617l0 0c9.568665 0 18.745483 3.9073286 25.511536 10.862418c6.7660522 6.9550896 10.5672 16.388214 10.5672 26.224197l0 0c0 20.482372 -16.152954 37.086613 -36.078735 37.086613l0 0c-19.92572 0 -36.078735 -16.60424 -36.078735 -37.086613z" fill-rule="evenodd"/><path fill="#ffffff" d="m775.6423 9.454068l72.15747 0l0 74.173225l-72.15747 0z" fill-rule="evenodd"/><path stroke="#000000" stroke-width="2.0" stroke-linejoin="round" stroke-linecap="butt" d="m775.6423 9.454068l72.15747 0l0 74.173225l-72.15747 0z" fill-rule="evenodd"/><path fill="#000000" fill-opacity="0.0" d="m657.5634 46.540684l118.078735 0" fill-rule="evenodd"/><path stroke="#000000" stroke-width="2.0" stroke-linejoin="round" stroke-linecap="butt" d="m657.5634 46.540684l118.078735 0" fill-rule="evenodd"/><path fill="#000000" fill-opacity="0.0" d="m716.1286 112.7769l-0.1574707 -67.08661" fill-rule="evenodd"/><path stroke="#000000" stroke-width="2.0" stroke-linejoin="round" stroke-linecap="butt" d="m716.1286 112.7769l-0.1574707 -67.08661" fill-rule="evenodd"/><path fill="#ffffff" d="m746.87054 204.09186l0 0c0 -20.48236 16.152954 -37.08661 36.078735 -37.08661l0 0c9.568665 0 18.745422 3.9073334 25.511536 10.8624115c6.7660522 6.9550934 10.5672 16.388214 10.5672 26.224197l0 0c0 20.482376 -16.153015 37.086624 -36.078735 37.086624l0 0c-19.925781 0 -36.078735 -16.604248 -36.078735 -37.086624z" fill-rule="evenodd"/><path stroke="#000000" stroke-width="2.0" stroke-linejoin="round" stroke-linecap="butt" d="m746.87054 204.09186l0 0c0 -20.48236 16.152954 -37.08661 36.078735 -37.08661l0 0c9.568665 0 18.745422 3.9073334 25.511536 10.8624115c6.7660522 6.9550934 10.5672 16.388214 10.5672 26.224197l0 0c0 20.482376 -16.153015 37.086624 -36.078735 37.086624l0 0c-19.925781 0 -36.078735 -16.604248 -36.078735 -37.086624z" fill-rule="evenodd"/><path fill="#000000" fill-opacity="0.0" d="m648.70605 112.480316l133.82678 -0.9763794" fill-rule="evenodd"/><path stroke="#000000" stroke-width="2.0" stroke-linejoin="round" stroke-linecap="butt" d="m648.70605 112.480316l133.82678 -0.9763794" fill-rule="evenodd"/><path fill="#000000" fill-opacity="0.0" d="m649.38245 167.43307l-0.661438 -54.960632" fill-rule="evenodd"/><path stroke="#000000" stroke-width="2.0" stroke-linejoin="round" stroke-linecap="butt" d="m649.38245 167.43307l-0.661438 -54.960632" fill-rule="evenodd"/><path fill="#000000" fill-opacity="0.0" d="m782.9493 167.00525l-0.31500244 -55.55905" fill-rule="evenodd"/><path stroke="#000000" stroke-width="2.0" stroke-linejoin="round" stroke-linecap="butt" d="m782.9493 167.00525l-0.31500244 -55.55905" fill-rule="evenodd"/><path fill="#000000" fill-opacity="0.0" d="m492.76028 205.4567l120.53543 -0.94488525" fill-rule="evenodd"/><path stroke="#000000" stroke-width="2.0" stroke-linejoin="round" stroke-linecap="butt" d="m492.76028 205.4567l120.53543 -0.94488525" fill-rule="evenodd"/><path fill="#000000" fill-opacity="0.0" d="m551.895 271.17847l-0.1574707 -65.60629" fill-rule="evenodd"/><path stroke="#000000" stroke-width="2.0" stroke-linejoin="round" stroke-linecap="butt" d="m551.895 271.17847l-0.1574707 -65.60629" fill-rule="evenodd"/><path fill="#000000" fill-opacity="0.0" d="m400.01312 272.50394l279.71655 -1.9842529" fill-rule="evenodd"/><path stroke="#000000" stroke-width="2.0" stroke-linejoin="round" stroke-linecap="butt" d="m400.01312 272.50394l279.71655 -1.9842529" fill-rule="evenodd"/><path fill="#000000" d="m363.36658 362.5013l0 0c0 -20.48236 16.153015 -37.08661 36.078766 -37.08661l0 0c9.568665 0 18.745422 3.907318 25.511505 10.862427c6.766083 6.955078 10.56723 16.388214 10.56723 26.224182l0 0c0 20.48236 -16.153015 37.08661 -36.078735 37.08661l0 0c-19.92575 0 -36.078766 -16.604248 -36.078766 -37.08661z" fill-rule="evenodd"/><path stroke="#000000" stroke-width="2.0" stroke-linejoin="round" stroke-linecap="butt" d="m363.36658 362.5013l0 0c0 -20.48236 16.153015 -37.08661 36.078766 -37.08661l0 0c9.568665 0 18.745422 3.907318 25.511505 10.862427c6.766083 6.955078 10.56723 16.388214 10.56723 26.224182l0 0c0 20.48236 -16.153015 37.08661 -36.078735 37.08661l0 0c-19.92575 0 -36.078766 -16.604248 -36.078766 -37.08661z" fill-rule="evenodd"/><path fill="#000000" d="m499.05173 325.4147l72.1575 0l0 74.17322l-72.1575 0z" fill-rule="evenodd"/><path stroke="#000000" stroke-width="2.0" stroke-linejoin="round" stroke-linecap="butt" d="m499.05173 325.4147l72.1575 0l0 74.17322l-72.1575 0z" fill-rule="evenodd"/><path fill="#ffffff" d="m643.9704 325.4147l72.15747 0l0 74.17322l-72.15747 0z" fill-rule="evenodd"/><path stroke="#000000" stroke-width="2.0" stroke-linejoin="round" stroke-linecap="butt" d="m643.9704 325.4147l72.15747 0l0 74.17322l-72.15747 0z" fill-rule="evenodd"/><path fill="#000000" fill-opacity="0.0" d="m399.44534 325.4147l0.06298828 -52.944885" fill-rule="evenodd"/><path stroke="#000000" stroke-width="2.0" stroke-linejoin="round" stroke-linecap="butt" d="m399.44534 325.4147l0.06298828 -52.944885" fill-rule="evenodd"/><path fill="#000000" fill-opacity="0.0" d="m535.1305 325.4147l-0.85040283 -54.236237" fill-rule="evenodd"/><path stroke="#000000" stroke-width="2.0" stroke-linejoin="round" stroke-linecap="butt" d="m535.1305 325.4147l-0.85040283 -54.236237" fill-rule="evenodd"/><path fill="#000000" fill-opacity="0.0" d="m680.04913 325.4147l-0.440979 -54.236237" fill-rule="evenodd"/><path stroke="#000000" stroke-width="2.0" stroke-linejoin="round" stroke-linecap="butt" d="m680.04913 325.4147l-0.440979 -54.236237" fill-rule="evenodd"/><path fill="#ffffff" d="m613.3037 167.43307l72.15747 0l0 74.17322l-72.15747 0z" fill-rule="evenodd"/><path stroke="#000000" stroke-width="2.0" stroke-linejoin="round" stroke-linecap="butt" d="m613.3037 167.43307l72.15747 0l0 74.17322l-72.15747 0z" fill-rule="evenodd"/><path fill="#000000" d="m420.6028 205.4567l0 0c0 -20.482376 16.152985 -37.086624 36.078735 -37.086624l0 0c9.568665 0 18.745453 3.9073334 25.511536 10.862427c6.7660522 6.9550934 10.5672 16.388214 10.5672 26.224197l0 0c0 20.482376 -16.152985 37.08661 -36.078735 37.08661l0 0c-19.92575 0 -36.078735 -16.604233 -36.078735 -37.08661z" fill-rule="evenodd"/><path stroke="#000000" stroke-width="2.0" stroke-linejoin="round" stroke-linecap="butt" d="m420.6028 205.4567l0 0c0 -20.482376 16.152985 -37.086624 36.078735 -37.086624l0 0c9.568665 0 18.745453 3.9073334 25.511536 10.862427c6.7660522 6.9550934 10.5672 16.388214 10.5672 26.224197l0 0c0 20.482376 -16.152985 37.08661 -36.078735 37.08661l0 0c-19.92575 0 -36.078735 -16.604233 -36.078735 -37.08661z" fill-rule="evenodd"/></g></svg>